<svg width="126" height="73" viewBox="0 0 126 73" fill="none" xmlns="http://www.w3.org/2000/svg">
<path d="M86.82 52.31C87.08 52.31 87.28 52.43 87.42 52.67C87.58 52.91 87.66 53.24 87.66 53.66C87.66 54.46 87.47 55.08 87.09 55.52C86.35 56.42 85.3 57.25 83.94 58.01C82.6 58.77 81.16 59.15 79.62 59.15C77.52 59.15 75.89 58.58 74.73 57.44C73.57 56.3 72.99 54.74 72.99 52.76C72.99 51.38 73.28 50.1 73.86 48.92C74.44 47.72 75.24 46.77 76.26 46.07C77.3 45.37 78.47 45.02 79.77 45.02C80.93 45.02 81.86 45.37 82.56 46.07C83.26 46.75 83.61 47.68 83.61 48.86C83.61 50.24 83.11 51.43 82.11 52.43C81.13 53.41 79.46 54.19 77.1 54.77C77.6 55.69 78.55 56.15 79.95 56.15C80.85 56.15 81.87 55.84 83.01 55.22C84.17 54.58 85.17 53.75 86.01 52.73C86.25 52.45 86.52 52.31 86.82 52.31ZM79.26 47.96C78.52 47.96 77.89 48.39 77.37 49.25C76.87 50.11 76.62 51.15 76.62 52.37V52.43C77.8 52.15 78.73 51.73 79.41 51.17C80.09 50.61 80.43 49.96 80.43 49.22C80.43 48.84 80.32 48.54 80.1 48.32C79.9 48.08 79.62 47.96 79.26 47.96ZM87.3473 59.15C86.5873 59.15 86.0473 58.75 85.7273 57.95C85.4273 57.15 85.2773 55.87 85.2773 54.11C85.2773 51.51 85.6473 49.04 86.3873 46.7C86.5673 46.12 86.8573 45.7 87.2573 45.44C87.6773 45.16 88.2573 45.02 88.9973 45.02C89.3973 45.02 89.6773 45.07 89.8373 45.17C89.9973 45.27 90.0773 45.46 90.0773 45.74C90.0773 46.06 89.9273 46.78 89.6273 47.9C89.4273 48.7 89.2673 49.4 89.1473 50C89.0273 50.6 88.9273 51.34 88.8473 52.22C89.5073 50.5 90.2473 49.1 91.0673 48.02C91.8873 46.94 92.6873 46.17 93.4673 45.71C94.2673 45.25 94.9973 45.02 95.6573 45.02C96.9573 45.02 97.6073 45.67 97.6073 46.97C97.6073 47.75 97.3873 49.16 96.9473 51.2C96.5673 52.94 96.3773 54.09 96.3773 54.65C96.3773 55.45 96.6673 55.85 97.2473 55.85C97.6473 55.85 98.1173 55.61 98.6573 55.13C99.2173 54.63 99.9573 53.83 100.877 52.73C101.117 52.45 101.387 52.31 101.687 52.31C101.947 52.31 102.147 52.43 102.287 52.67C102.447 52.91 102.527 53.24 102.527 53.66C102.527 54.46 102.337 55.08 101.957 55.52C101.097 56.58 100.167 57.45 99.1673 58.13C98.1873 58.81 97.0673 59.15 95.8073 59.15C94.7873 59.15 94.0173 58.86 93.4973 58.28C92.9773 57.68 92.7173 56.82 92.7173 55.7C92.7173 55.14 92.8573 54.14 93.1373 52.7C93.3973 51.44 93.5273 50.57 93.5273 50.09C93.5273 49.77 93.4173 49.61 93.1973 49.61C92.9373 49.61 92.5673 49.95 92.0873 50.63C91.6273 51.29 91.1473 52.17 90.6473 53.27C90.1673 54.37 89.7773 55.53 89.4773 56.75C89.2573 57.69 88.9973 58.33 88.6973 58.67C88.4173 58.99 87.9673 59.15 87.3473 59.15ZM102.23 59.15C101.47 59.15 100.93 58.75 100.61 57.95C100.31 57.15 100.16 55.87 100.16 54.11C100.16 51.51 100.53 49.04 101.27 46.7C101.45 46.12 101.74 45.7 102.14 45.44C102.56 45.16 103.14 45.02 103.88 45.02C104.28 45.02 104.56 45.07 104.72 45.17C104.88 45.27 104.96 45.46 104.96 45.74C104.96 46.06 104.81 46.78 104.51 47.9C104.31 48.7 104.15 49.4 104.03 50C103.91 50.6 103.81 51.34 103.73 52.22C104.39 50.5 105.13 49.1 105.95 48.02C106.77 46.94 107.57 46.17 108.35 45.71C109.15 45.25 109.88 45.02 110.54 45.02C111.84 45.02 112.49 45.67 112.49 46.97C112.49 47.23 112.4 47.86 112.22 48.86C112.06 49.66 111.98 50.16 111.98 50.36C111.98 51.06 112.23 51.41 112.73 51.41C113.29 51.41 114.01 50.97 114.89 50.09C115.15 49.83 115.42 49.7 115.7 49.7C115.96 49.7 116.16 49.82 116.3 50.06C116.46 50.28 116.54 50.58 116.54 50.96C116.54 51.7 116.34 52.28 115.94 52.7C115.38 53.28 114.72 53.78 113.96 54.2C113.22 54.6 112.43 54.8 111.59 54.8C110.53 54.8 109.72 54.53 109.16 53.99C108.62 53.45 108.35 52.72 108.35 51.8C108.35 51.5 108.38 51.2 108.44 50.9C108.48 50.5 108.5 50.23 108.5 50.09C108.5 49.77 108.39 49.61 108.17 49.61C107.87 49.61 107.47 49.95 106.97 50.63C106.49 51.29 106.01 52.17 105.53 53.27C105.05 54.37 104.66 55.53 104.36 56.75C104.14 57.69 103.88 58.33 103.58 58.67C103.3 58.99 102.85 59.15 102.23 59.15ZM124.253 45.02C124.713 45.02 125.033 45.08 125.213 45.2C125.393 45.32 125.483 45.52 125.483 45.8C125.483 46.28 125.223 47.99 124.703 50.93C124.243 53.75 123.973 55.42 123.893 55.94C123.153 61.08 122.133 65.15 120.833 68.15C119.533 71.15 117.803 72.65 115.643 72.65C114.623 72.65 113.793 72.33 113.153 71.69C112.513 71.07 112.192 70.25 112.192 69.23C112.192 68.29 112.403 67.33 112.823 66.35C113.263 65.37 114.063 64.24 115.223 62.96C116.403 61.7 118.063 60.25 120.203 58.61L120.293 57.92C120.433 57.18 120.593 56.12 120.773 54.74C120.373 56.18 119.813 57.28 119.093 58.04C118.373 58.78 117.613 59.15 116.813 59.15C115.913 59.15 115.173 58.74 114.593 57.92C114.033 57.08 113.753 56.04 113.753 54.8C113.753 53.3 113.853 51.93 114.053 50.69C114.253 49.43 114.583 48.1 115.043 46.7C115.243 46.1 115.523 45.67 115.883 45.41C116.243 45.15 116.813 45.02 117.593 45.02C118.033 45.02 118.333 45.09 118.493 45.23C118.673 45.37 118.763 45.58 118.763 45.86C118.763 46.02 118.653 46.56 118.433 47.48C118.233 48.22 118.073 48.89 117.953 49.49C117.793 50.31 117.653 51.1 117.533 51.86C117.413 52.6 117.353 53.21 117.353 53.69C117.353 54.45 117.563 54.83 117.983 54.83C118.283 54.83 118.653 54.53 119.093 53.93C119.553 53.33 120.033 52.42 120.533 51.2C121.053 49.98 121.553 48.48 122.033 46.7C122.193 46.1 122.433 45.67 122.753 45.41C123.093 45.15 123.593 45.02 124.253 45.02ZM115.973 69.74C116.473 69.74 117.033 69.16 117.653 68C118.273 66.84 118.893 64.91 119.513 62.21C117.973 63.51 116.853 64.69 116.153 65.75C115.473 66.83 115.133 67.77 115.133 68.57C115.133 68.91 115.193 69.19 115.313 69.41C115.453 69.63 115.673 69.74 115.973 69.74Z" fill="white"/>
<path d="M12.5 3C12.5 1.61929 11.3807 0.5 10 0.5C8.61929 0.5 7.5 1.61929 7.5 3H12.5ZM7.5 6.75C7.5 8.13071 8.61929 9.25 10 9.25C11.3807 9.25 12.5 8.13071 12.5 6.75H7.5ZM12.5 14.25C12.5 12.8693 11.3807 11.75 10 11.75C8.61929 11.75 7.5 12.8693 7.5 14.25H12.5ZM7.5 21.75C7.5 23.1307 8.61929 24.25 10 24.25C11.3807 24.25 12.5 23.1307 12.5 21.75H7.5ZM12.5 29.25C12.5 27.8693 11.3807 26.75 10 26.75C8.61929 26.75 7.5 27.8693 7.5 29.25H12.5ZM7.5 36.75C7.5 38.1307 8.61929 39.25 10 39.25C11.3807 39.25 12.5 38.1307 12.5 36.75H7.5ZM12.5 44.25C12.5 42.8693 11.3807 41.75 10 41.75C8.61929 41.75 7.5 42.8693 7.5 44.25H12.5ZM7.5 51.75C7.5 53.1307 8.61929 54.25 10 54.25C11.3807 54.25 12.5 53.1307 12.5 51.75H7.5ZM12.5 59.25C12.5 57.8693 11.3807 56.75 10 56.75C8.61929 56.75 7.5 57.8693 7.5 59.25H12.5ZM7.5 3V6.75H12.5V3H7.5ZM7.5 14.25V21.75H12.5V14.25H7.5ZM7.5 29.25V36.75H12.5V29.25H7.5ZM7.5 44.25V51.75H12.5V44.25H7.5ZM7.5 59.25V63H12.5V59.25H7.5ZM12.5 3C12.5 1.61929 11.3807 0.5 10 0.5C8.61929 0.5 7.5 1.61929 7.5 3H12.5ZM7.5 6.75C7.5 8.13071 8.61929 9.25 10 9.25C11.3807 9.25 12.5 8.13071 12.5 6.75H7.5ZM12.5 14.25C12.5 12.8693 11.3807 11.75 10 11.75C8.61929 11.75 7.5 12.8693 7.5 14.25H12.5ZM7.5 21.75C7.5 23.1307 8.61929 24.25 10 24.25C11.3807 24.25 12.5 23.1307 12.5 21.75H7.5ZM12.5 29.25C12.5 27.8693 11.3807 26.75 10 26.75C8.61929 26.75 7.5 27.8693 7.5 29.25H12.5ZM7.5 36.75C7.5 38.1307 8.61929 39.25 10 39.25C11.3807 39.25 12.5 38.1307 12.5 36.75H7.5ZM12.5 44.25C12.5 42.8693 11.3807 41.75 10 41.75C8.61929 41.75 7.5 42.8693 7.5 44.25H12.5ZM7.5 51.75C7.5 53.1307 8.61929 54.25 10 54.25C11.3807 54.25 12.5 53.1307 12.5 51.75H7.5ZM12.5 59.25C12.5 57.8693 11.3807 56.75 10 56.75C8.61929 56.75 7.5 57.8693 7.5 59.25H12.5ZM7.5 3V6.75H12.5V3H7.5ZM7.5 14.25V21.75H12.5V14.25H7.5ZM7.5 29.25V36.75H12.5V29.25H7.5ZM7.5 44.25V51.75H12.5V44.25H7.5ZM7.5 59.25V63H12.5V59.25H7.5Z" fill="url(#paint0_angular_9_116)"/>
<path d="M66.1667 3C66.1667 1.61929 65.0474 0.5 63.6667 0.5C62.2859 0.5 61.1667 1.61929 61.1667 3H66.1667ZM61.1667 6.75C61.1667 8.13071 62.2859 9.25 63.6667 9.25C65.0474 9.25 66.1667 8.13071 66.1667 6.75H61.1667ZM66.1667 14.25C66.1667 12.8693 65.0474 11.75 63.6667 11.75C62.2859 11.75 61.1667 12.8693 61.1667 14.25H66.1667ZM61.1667 21.75C61.1667 23.1307 62.2859 24.25 63.6667 24.25C65.0474 24.25 66.1667 23.1307 66.1667 21.75H61.1667ZM66.1667 29.25C66.1667 27.8693 65.0474 26.75 63.6667 26.75C62.2859 26.75 61.1667 27.8693 61.1667 29.25H66.1667ZM61.1667 36.75C61.1667 38.1307 62.2859 39.25 63.6667 39.25C65.0474 39.25 66.1667 38.1307 66.1667 36.75H61.1667ZM66.1667 44.25C66.1667 42.8693 65.0474 41.75 63.6667 41.75C62.2859 41.75 61.1667 42.8693 61.1667 44.25H66.1667ZM61.1667 51.75C61.1667 53.1307 62.2859 54.25 63.6667 54.25C65.0474 54.25 66.1667 53.1307 66.1667 51.75H61.1667ZM66.1667 59.25C66.1667 57.8693 65.0474 56.75 63.6667 56.75C62.2859 56.75 61.1667 57.8693 61.1667 59.25H66.1667ZM61.1667 3V6.75H66.1667V3H61.1667ZM61.1667 14.25V21.75H66.1667V14.25H61.1667ZM61.1667 29.25V36.75H66.1667V29.25H61.1667ZM61.1667 44.25V51.75H66.1667V44.25H61.1667ZM61.1667 59.25V63H66.1667V59.25H61.1667ZM66.1667 3C66.1667 1.61929 65.0474 0.5 63.6667 0.5C62.2859 0.5 61.1667 1.61929 61.1667 3H66.1667ZM61.1667 6.75C61.1667 8.13071 62.2859 9.25 63.6667 9.25C65.0474 9.25 66.1667 8.13071 66.1667 6.75H61.1667ZM66.1667 14.25C66.1667 12.8693 65.0474 11.75 63.6667 11.75C62.2859 11.75 61.1667 12.8693 61.1667 14.25H66.1667ZM61.1667 21.75C61.1667 23.1307 62.2859 24.25 63.6667 24.25C65.0474 24.25 66.1667 23.1307 66.1667 21.75H61.1667ZM66.1667 29.25C66.1667 27.8693 65.0474 26.75 63.6667 26.75C62.2859 26.75 61.1667 27.8693 61.1667 29.25H66.1667ZM61.1667 36.75C61.1667 38.1307 62.2859 39.25 63.6667 39.25C65.0474 39.25 66.1667 38.1307 66.1667 36.75H61.1667ZM66.1667 44.25C66.1667 42.8693 65.0474 41.75 63.6667 41.75C62.2859 41.75 61.1667 42.8693 61.1667 44.25H66.1667ZM61.1667 51.75C61.1667 53.1307 62.2859 54.25 63.6667 54.25C65.0474 54.25 66.1667 53.1307 66.1667 51.75H61.1667ZM66.1667 59.25C66.1667 57.8693 65.0474 56.75 63.6667 56.75C62.2859 56.75 61.1667 57.8693 61.1667 59.25H66.1667ZM61.1667 3V6.75H66.1667V3H61.1667ZM61.1667 14.25V21.75H66.1667V14.25H61.1667ZM61.1667 29.25V36.75H66.1667V29.25H61.1667ZM61.1667 44.25V51.75H66.1667V44.25H61.1667ZM61.1667 59.25V63H66.1667V59.25H61.1667Z" fill="url(#paint1_angular_9_116)"/>
<path d="M15.8333 3C15.8333 1.61929 14.7141 0.5 13.3333 0.5C11.9526 0.5 10.8333 1.61929 10.8333 3H15.8333ZM10.8333 6.75C10.8333 8.13071 11.9526 9.25 13.3333 9.25C14.7141 9.25 15.8333 8.13071 15.8333 6.75H10.8333ZM15.8333 14.25C15.8333 12.8693 14.7141 11.75 13.3333 11.75C11.9526 11.75 10.8333 12.8693 10.8333 14.25H15.8333ZM10.8333 21.75C10.8333 23.1307 11.9526 24.25 13.3333 24.25C14.7141 24.25 15.8333 23.1307 15.8333 21.75H10.8333ZM15.8333 29.25C15.8333 27.8693 14.7141 26.75 13.3333 26.75C11.9526 26.75 10.8333 27.8693 10.8333 29.25H15.8333ZM10.8333 36.75C10.8333 38.1307 11.9526 39.25 13.3333 39.25C14.7141 39.25 15.8333 38.1307 15.8333 36.75H10.8333ZM15.8333 44.25C15.8333 42.8693 14.7141 41.75 13.3333 41.75C11.9526 41.75 10.8333 42.8693 10.8333 44.25H15.8333ZM10.8333 51.75C10.8333 53.1307 11.9526 54.25 13.3333 54.25C14.7141 54.25 15.8333 53.1307 15.8333 51.75H10.8333ZM15.8333 59.25C15.8333 57.8693 14.7141 56.75 13.3333 56.75C11.9526 56.75 10.8333 57.8693 10.8333 59.25H15.8333ZM10.8333 3V6.75H15.8333V3H10.8333ZM10.8333 14.25V21.75H15.8333V14.25H10.8333ZM10.8333 29.25V36.75H15.8333V29.25H10.8333ZM10.8333 44.25V51.75H15.8333V44.25H10.8333ZM10.8333 59.25V63H15.8333V59.25H10.8333ZM15.8333 3C15.8333 1.61929 14.7141 0.5 13.3333 0.5C11.9526 0.5 10.8333 1.61929 10.8333 3H15.8333ZM10.8333 6.75C10.8333 8.13071 11.9526 9.25 13.3333 9.25C14.7141 9.25 15.8333 8.13071 15.8333 6.75H10.8333ZM15.8333 14.25C15.8333 12.8693 14.7141 11.75 13.3333 11.75C11.9526 11.75 10.8333 12.8693 10.8333 14.25H15.8333ZM10.8333 21.75C10.8333 23.1307 11.9526 24.25 13.3333 24.25C14.7141 24.25 15.8333 23.1307 15.8333 21.75H10.8333ZM15.8333 29.25C15.8333 27.8693 14.7141 26.75 13.3333 26.75C11.9526 26.75 10.8333 27.8693 10.8333 29.25H15.8333ZM10.8333 36.75C10.8333 38.1307 11.9526 39.25 13.3333 39.25C14.7141 39.25 15.8333 38.1307 15.8333 36.75H10.8333ZM15.8333 44.25C15.8333 42.8693 14.7141 41.75 13.3333 41.75C11.9526 41.75 10.8333 42.8693 10.8333 44.25H15.8333ZM10.8333 51.75C10.8333 53.1307 11.9526 54.25 13.3333 54.25C14.7141 54.25 15.8333 53.1307 15.8333 51.75H10.8333ZM15.8333 59.25C15.8333 57.8693 14.7141 56.75 13.3333 56.75C11.9526 56.75 10.8333 57.8693 10.8333 59.25H15.8333ZM10.8333 3V6.75H15.8333V3H10.8333ZM10.8333 14.25V21.75H15.8333V14.25H10.8333ZM10.8333 29.25V36.75H15.8333V29.25H10.8333ZM10.8333 44.25V51.75H15.8333V44.25H10.8333ZM10.8333 59.25V63H15.8333V59.25H10.8333Z" fill="url(#paint2_angular_9_116)"/>
<path d="M60.5 3C60.5 1.61929 59.3807 0.5 58 0.5C56.6193 0.5 55.5 1.61929 55.5 3H60.5ZM55.5 6.75C55.5 8.13071 56.6193 9.25 58 9.25C59.3807 9.25 60.5 8.13071 60.5 6.75H55.5ZM60.5 14.25C60.5 12.8693 59.3807 11.75 58 11.75C56.6193 11.75 55.5 12.8693 55.5 14.25H60.5ZM55.5 21.75C55.5 23.1307 56.6193 24.25 58 24.25C59.3807 24.25 60.5 23.1307 60.5 21.75H55.5ZM60.5 29.25C60.5 27.8693 59.3807 26.75 58 26.75C56.6193 26.75 55.5 27.8693 55.5 29.25H60.5ZM55.5 36.75C55.5 38.1307 56.6193 39.25 58 39.25C59.3807 39.25 60.5 38.1307 60.5 36.75H55.5ZM60.5 44.25C60.5 42.8693 59.3807 41.75 58 41.75C56.6193 41.75 55.5 42.8693 55.5 44.25H60.5ZM55.5 51.75C55.5 53.1307 56.6193 54.25 58 54.25C59.3807 54.25 60.5 53.1307 60.5 51.75H55.5ZM60.5 59.25C60.5 57.8693 59.3807 56.75 58 56.75C56.6193 56.75 55.5 57.8693 55.5 59.25H60.5ZM55.5 3V6.75H60.5V3H55.5ZM55.5 14.25V21.75H60.5V14.25H55.5ZM55.5 29.25V36.75H60.5V29.25H55.5ZM55.5 44.25V51.75H60.5V44.25H55.5ZM55.5 59.25V63H60.5V59.25H55.5ZM60.5 3C60.5 1.61929 59.3807 0.5 58 0.5C56.6193 0.5 55.5 1.61929 55.5 3H60.5ZM55.5 6.75C55.5 8.13071 56.6193 9.25 58 9.25C59.3807 9.25 60.5 8.13071 60.5 6.75H55.5ZM60.5 14.25C60.5 12.8693 59.3807 11.75 58 11.75C56.6193 11.75 55.5 12.8693 55.5 14.25H60.5ZM55.5 21.75C55.5 23.1307 56.6193 24.25 58 24.25C59.3807 24.25 60.5 23.1307 60.5 21.75H55.5ZM60.5 29.25C60.5 27.8693 59.3807 26.75 58 26.75C56.6193 26.75 55.5 27.8693 55.5 29.25H60.5ZM55.5 36.75C55.5 38.1307 56.6193 39.25 58 39.25C59.3807 39.25 60.5 38.1307 60.5 36.75H55.5ZM60.5 44.25C60.5 42.8693 59.3807 41.75 58 41.75C56.6193 41.75 55.5 42.8693 55.5 44.25H60.5ZM55.5 51.75C55.5 53.1307 56.6193 54.25 58 54.25C59.3807 54.25 60.5 53.1307 60.5 51.75H55.5ZM60.5 59.25C60.5 57.8693 59.3807 56.75 58 56.75C56.6193 56.75 55.5 57.8693 55.5 59.25H60.5ZM55.5 3V6.75H60.5V3H55.5ZM55.5 14.25V21.75H60.5V14.25H55.5ZM55.5 29.25V36.75H60.5V29.25H55.5ZM55.5 44.25V51.75H60.5V44.25H55.5ZM55.5 59.25V63H60.5V59.25H55.5Z" fill="url(#paint3_linear_9_116)"/>
<path d="M14.1667 31.4678C12.7859 31.4678 11.6667 32.5871 11.6667 33.9678C11.6667 35.3485 12.7859 36.4678 14.1667 36.4678V31.4678ZM18.4722 36.4678C19.8529 36.4678 20.9722 35.3485 20.9722 33.9678C20.9722 32.5871 19.8529 31.4678 18.4722 31.4678V36.4678ZM27.0833 31.4678C25.7026 31.4678 24.5833 32.5871 24.5833 33.9678C24.5833 35.3485 25.7026 36.4678 27.0833 36.4678V31.4678ZM35.6944 36.4678C37.0751 36.4678 38.1944 35.3485 38.1944 33.9678C38.1944 32.5871 37.0751 31.4678 35.6944 31.4678V36.4678ZM44.3055 31.4678C42.9248 31.4678 41.8055 32.5871 41.8055 33.9678C41.8055 35.3485 42.9248 36.4678 44.3055 36.4678V31.4678ZM52.9167 36.4678C54.2974 36.4678 55.4167 35.3485 55.4167 33.9678C55.4167 32.5871 54.2974 31.4678 52.9167 31.4678V36.4678ZM61.5278 31.4678C60.1471 31.4678 59.0278 32.5871 59.0278 33.9678C59.0278 35.3485 60.1471 36.4678 61.5278 36.4678V31.4678ZM14.1667 36.4678H18.4722V31.4678H14.1667V36.4678ZM27.0833 36.4678H35.6944V31.4678H27.0833V36.4678ZM44.3055 36.4678H52.9167V31.4678H44.3055V36.4678ZM61.5278 36.4678L65.8333 36.4678V31.4678H61.5278V36.4678ZM14.1667 31.4678C12.7859 31.4678 11.6667 32.5871 11.6667 33.9678C11.6667 35.3485 12.7859 36.4678 14.1667 36.4678V31.4678ZM18.4722 36.4678C19.8529 36.4678 20.9722 35.3485 20.9722 33.9678C20.9722 32.5871 19.8529 31.4678 18.4722 31.4678V36.4678ZM27.0833 31.4678C25.7026 31.4678 24.5833 32.5871 24.5833 33.9678C24.5833 35.3485 25.7026 36.4678 27.0833 36.4678V31.4678ZM35.6944 36.4678C37.0751 36.4678 38.1944 35.3485 38.1944 33.9678C38.1944 32.5871 37.0751 31.4678 35.6944 31.4678V36.4678ZM44.3055 31.4678C42.9248 31.4678 41.8055 32.5871 41.8055 33.9678C41.8055 35.3485 42.9248 36.4678 44.3055 36.4678V31.4678ZM52.9167 36.4678C54.2974 36.4678 55.4167 35.3485 55.4167 33.9678C55.4167 32.5871 54.2974 31.4678 52.9167 31.4678V36.4678ZM61.5278 31.4678C60.1471 31.4678 59.0278 32.5871 59.0278 33.9678C59.0278 35.3485 60.1471 36.4678 61.5278 36.4678V31.4678ZM14.1667 36.4678H18.4722V31.4678H14.1667V36.4678ZM27.0833 36.4678H35.6944V31.4678H27.0833V36.4678ZM44.3055 36.4678H52.9167V31.4678H44.3055V36.4678ZM61.5278 36.4678L65.8333 36.4678V31.4678H61.5278V36.4678Z" fill="url(#paint4_angular_9_116)"/>
<path d="M14.1667 45.3656C21.5305 45.3656 27.5 39.396 27.5 32.0322C27.5 24.6684 21.5305 18.6989 14.1667 18.6989C6.80286 18.6989 0.833323 24.6684 0.833323 32.0322C0.833323 39.396 6.80286 45.3656 14.1667 45.3656ZM80.2671 32.0322L65.8333 17.5985L51.3996 32.0322L65.8333 46.466L80.2671 32.0322ZM18.4722 34.5322C19.8529 34.5322 20.9722 33.4129 20.9722 32.0322C20.9722 30.6515 19.8529 29.5322 18.4722 29.5322V34.5322ZM27.0833 29.5322C25.7026 29.5322 24.5833 30.6515 24.5833 32.0322C24.5833 33.4129 25.7026 34.5322 27.0833 34.5322V29.5322ZM35.6944 34.5322C37.0751 34.5322 38.1944 33.4129 38.1944 32.0322C38.1944 30.6515 37.0751 29.5322 35.6944 29.5322V34.5322ZM44.3055 29.5322C42.9248 29.5322 41.8055 30.6515 41.8055 32.0322C41.8055 33.4129 42.9248 34.5322 44.3055 34.5322V29.5322ZM52.9167 34.5322C54.2974 34.5322 55.4167 33.4129 55.4167 32.0322C55.4167 30.6515 54.2974 29.5322 52.9167 29.5322V34.5322ZM61.5278 29.5322C60.1471 29.5322 59.0278 30.6515 59.0278 32.0322C59.0278 33.4129 60.1471 34.5322 61.5278 34.5322V29.5322ZM14.1667 34.5322H18.4722V29.5322H14.1667V34.5322ZM27.0833 34.5322H35.6944V29.5322H27.0833V34.5322ZM44.3055 34.5322H52.9167V29.5322H44.3055V34.5322ZM61.5278 34.5322L65.8333 34.5322V29.5322H61.5278V34.5322ZM14.1667 45.3656C21.5305 45.3656 27.5 39.396 27.5 32.0322C27.5 24.6684 21.5305 18.6989 14.1667 18.6989C6.80286 18.6989 0.833323 24.6684 0.833323 32.0322C0.833323 39.396 6.80286 45.3656 14.1667 45.3656ZM80.2671 32.0322L65.8333 17.5985L51.3996 32.0322L65.8333 46.466L80.2671 32.0322ZM18.4722 34.5322C19.8529 34.5322 20.9722 33.4129 20.9722 32.0322C20.9722 30.6515 19.8529 29.5322 18.4722 29.5322V34.5322ZM27.0833 29.5322C25.7026 29.5322 24.5833 30.6515 24.5833 32.0322C24.5833 33.4129 25.7026 34.5322 27.0833 34.5322V29.5322ZM35.6944 34.5322C37.0751 34.5322 38.1944 33.4129 38.1944 32.0322C38.1944 30.6515 37.0751 29.5322 35.6944 29.5322V34.5322ZM44.3055 29.5322C42.9248 29.5322 41.8055 30.6515 41.8055 32.0322C41.8055 33.4129 42.9248 34.5322 44.3055 34.5322V29.5322ZM52.9167 34.5322C54.2974 34.5322 55.4167 33.4129 55.4167 32.0322C55.4167 30.6515 54.2974 29.5322 52.9167 29.5322V34.5322ZM61.5278 29.5322C60.1471 29.5322 59.0278 30.6515 59.0278 32.0322C59.0278 33.4129 60.1471 34.5322 61.5278 34.5322V29.5322ZM14.1667 34.5322H18.4722V29.5322H14.1667V34.5322ZM27.0833 34.5322H35.6944V29.5322H27.0833V34.5322ZM44.3055 34.5322H52.9167V29.5322H44.3055V34.5322ZM61.5278 34.5322L65.8333 34.5322V29.5322H61.5278V34.5322Z" fill="url(#paint5_angular_9_116)"/>
<defs>
<radialGradient id="paint0_angular_9_116" cx="0" cy="0" r="1" gradientUnits="userSpaceOnUse" gradientTransform="translate(10.5 33) rotate(90) scale(30 0.5)">
<stop offset="0.145" stop-color="#A23E40"/>
<stop offset="0.375" stop-color="#CB2424"/>
<stop offset="0.665" stop-color="#2587C4" stop-opacity="0.6"/>
<stop offset="0.865" stop-color="#2A84BF"/>
</radialGradient>
<radialGradient id="paint1_angular_9_116" cx="0" cy="0" r="1" gradientUnits="userSpaceOnUse" gradientTransform="translate(64.1667 33) rotate(90) scale(30 0.5)">
<stop offset="0.145" stop-color="#A23E40"/>
<stop offset="0.375" stop-color="#CB2424"/>
<stop offset="0.665" stop-color="#2587C4" stop-opacity="0.6"/>
<stop offset="0.865" stop-color="#2A84BF"/>
</radialGradient>
<radialGradient id="paint2_angular_9_116" cx="0" cy="0" r="1" gradientUnits="userSpaceOnUse" gradientTransform="translate(13.8333 33) rotate(90) scale(30 0.5)">
<stop offset="0.145" stop-color="#A23E40"/>
<stop offset="0.375" stop-color="#CB2424"/>
<stop offset="0.665" stop-color="#2587C4" stop-opacity="0.6"/>
<stop offset="0.865" stop-color="#2A84BF"/>
</radialGradient>
<linearGradient id="paint3_linear_9_116" x1="58.5" y1="3" x2="58.5" y2="63" gradientUnits="userSpaceOnUse">
<stop offset="0.195" stop-color="#B13137"/>
<stop offset="0.4" stop-color="#1A8ECF"/>
</linearGradient>
<radialGradient id="paint4_angular_9_116" cx="0" cy="0" r="1" gradientUnits="userSpaceOnUse" gradientTransform="translate(40 33.4678) scale(25.8333 0.5)">
<stop offset="0.145" stop-color="#A23E40"/>
<stop offset="0.375" stop-color="#CB2424"/>
<stop offset="0.665" stop-color="#2587C4" stop-opacity="0.6"/>
<stop offset="0.865" stop-color="#2A84BF"/>
</radialGradient>
<radialGradient id="paint5_angular_9_116" cx="0" cy="0" r="1" gradientUnits="userSpaceOnUse" gradientTransform="translate(40 31.5322) scale(25.8333 0.5)">
<stop offset="0.145" stop-color="#A23E40"/>
<stop offset="0.375" stop-color="#CB2424"/>
<stop offset="0.665" stop-color="#2587C4" stop-opacity="0.6"/>
<stop offset="0.865" stop-color="#2A84BF"/>
</radialGradient>
</defs>
</svg>
