<svg width="255" height="251" viewBox="0 0 255 251" fill="none" xmlns="http://www.w3.org/2000/svg">
<g filter="url(#filter0_d_8_12)">
<path d="M160.759 189.486L159.88 189.251L153.957 187.668L154.99 183.803L160.821 185.362L160.469 184.848C160.519 184.814 160.57 184.779 160.623 184.742L160.592 184.686C160.733 184.609 160.876 184.536 161.02 184.469C162.061 183.752 163.514 182.742 165.236 181.523L166.392 183.155C168.874 181.398 171.91 179.208 175.07 176.836L173.87 175.236C176.675 173.13 179.571 170.886 182.254 168.678L183.525 170.223C186.591 167.7 189.393 165.218 191.49 163.032L190.046 161.648C191.541 160.089 192.529 158.823 193 157.909C193.324 157.28 193.774 156.688 194.405 156.259C195.059 155.815 195.794 155.624 196.532 155.646C197.889 155.686 199.118 156.434 200.085 157.207L198.837 158.77C200.667 160.232 202.833 162.986 205.019 166.226L206.677 165.108C208.454 167.741 210.234 170.674 211.857 173.49L210.124 174.489C211.942 177.645 213.575 180.678 214.793 183.002L216.564 182.074C217.251 183.385 217.808 184.473 218.193 185.234C218.385 185.614 218.535 185.913 218.637 186.118C218.688 186.22 218.727 186.299 218.753 186.352L218.784 186.413L218.791 186.429L218.794 186.434L218.794 186.435L218.794 186.435L218.794 186.435L217 187.318L218.794 186.435L219.452 187.772L218.359 188.785L214.638 192.234L213.279 190.767L205.836 197.664L207.196 199.131L199.754 206.028L198.394 204.562L190.952 211.459L192.311 212.926L188.59 216.374L186.602 218.217L160.759 189.486ZM160.759 189.486L161.514 188.977L161.514 188.977L161.515 188.976L161.516 188.975L161.522 188.972L161.542 188.958L161.62 188.905C161.689 188.858 161.791 188.789 161.923 188.699L161.893 188.655C161.943 188.609 161.992 188.566 162.04 188.526L160.802 187.043C161.001 186.908 161.268 186.725 161.597 186.5L162.531 188.185C162.588 188.154 162.644 188.125 162.699 188.1L162.732 188.147C162.798 188.101 162.867 188.054 162.939 188.004C163.652 187.766 164.59 187.846 165.894 188.534L166.827 186.765C169.215 188.026 171.736 190.523 174.161 193.532L172.603 194.787C174.57 197.228 176.488 200.039 178.225 202.812L179.92 201.751C181.924 204.951 183.665 208.062 184.945 210.455L160.759 189.486ZM20.0159 33.3253C20.225 37.0714 20.3841 41.287 20.5012 45.88M20.7735 70.9975C20.7744 75.0815 20.7598 79.287 20.7328 83.5778M20.6239 96.1132C20.579 100.265 20.5258 104.461 20.467 108.671M20.2776 121.225C20.2101 125.437 20.1395 129.633 20.0684 133.784M19.8519 146.319C19.778 150.609 19.7066 154.813 19.6407 158.895M19.4538 171.421C19.3946 175.859 19.3477 180.076 19.318 184.015M19.2932 196.579C19.3372 204.513 19.5234 210.323 19.9286 213.125M23.7105 209.292C25.0181 206.259 26.6139 202.195 28.3988 197.473M32.8195 185.545C34.0799 182.098 35.3844 178.507 36.7088 174.86C36.8635 174.434 37.0186 174.007 37.1738 173.579M41.5312 161.623C43.0306 157.533 44.5186 153.511 45.9613 149.685M50.5564 137.825C53.4014 130.744 55.8484 125.278 57.541 122.762M59.625 123.168C60.0802 126.153 61.0973 132.418 62.6838 140.017M65.5485 152.397C68.9673 165.729 73.8112 179.916 80.1086 187.32M89.2556 192.997C99.7789 195.261 107.432 184.838 110.917 178.765M118.939 176.237L130.784 179.403M142.629 182.569L154.474 185.735M61.3294 121.013L61.3294 121.013L61.1821 119.941L60.2038 119.478C59.0501 118.931 58.0235 119.453 57.5449 119.79C57.0368 120.148 56.6041 120.65 56.2471 121.128C55.5112 122.115 54.7024 123.55 53.8476 125.265L57.4273 127.049C57.637 126.629 57.8372 126.24 58.0276 125.881C58.126 126.489 58.2354 127.152 58.3559 127.866L62.3001 127.2C61.9749 125.274 61.7317 123.723 61.57 122.656C61.4892 122.122 61.4287 121.709 61.3886 121.431C61.3686 121.292 61.3536 121.187 61.3438 121.116L61.3328 121.038L61.3301 121.019L61.3295 121.014L61.3294 121.013ZM160.759 186.989C161.02 186.772 161.287 186.589 161.559 186.437L160.892 185.465L160.562 186.699L160.759 186.989ZM113.533 172.722L111.852 172.273L111.175 173.874L111.175 173.874L111.175 173.875L111.175 173.875L111.175 173.875L111.175 173.875L111.171 173.885L111.15 173.933C111.131 173.977 111.1 174.046 111.059 174.137C110.976 174.32 110.85 174.593 110.682 174.94C110.346 175.633 109.842 176.619 109.182 177.769L112.652 179.761C113.266 178.689 113.757 177.747 114.118 177.019L118.423 178.169L119.456 174.305L113.533 172.722ZM15.6845 16.5064C15.6629 16.4876 15.6632 16.4882 15.6814 16.5191C15.729 16.6 15.8986 16.8886 16.1156 17.5788C16.3822 18.4267 16.6411 19.6125 16.8824 21.1445L20.8337 20.5222C20.5782 18.8996 20.2825 17.4957 19.9315 16.3791C19.6137 15.3683 19.1426 14.2158 18.3155 13.4936L15.6845 16.5064ZM18.019 33.4367C18.2267 37.1572 18.3851 41.3518 18.5018 45.931L22.5005 45.829C22.3831 41.2222 22.2233 36.9855 22.0128 33.2138L18.019 33.4367ZM18.7149 58.4942C18.7543 62.4962 18.7726 66.6783 18.7735 70.998L22.7735 70.9971C22.7726 66.667 22.7542 62.4718 22.7147 58.4548L18.7149 58.4942ZM18.7329 83.5652C18.707 87.6725 18.6698 91.8585 18.624 96.0915L22.6238 96.1348C22.6696 91.8967 22.7069 87.7046 22.7328 83.5904L18.7329 83.5652ZM18.4672 108.644C18.4088 112.822 18.3449 117.015 18.2779 121.193L22.2773 121.258C22.3444 117.077 22.4084 112.881 22.4668 108.699L18.4672 108.644ZM18.0686 133.749C18.0253 136.281 17.9818 138.795 17.9386 141.286C17.9096 142.963 17.8807 144.63 17.8522 146.285L21.8516 146.354C21.8801 144.7 21.909 143.033 21.938 141.356C21.9811 138.865 22.0247 136.349 22.0681 133.818L18.0686 133.749ZM17.641 158.863C17.5711 163.191 17.5076 167.382 17.454 171.394L21.4537 171.448C21.5071 167.44 21.5706 163.253 21.6404 158.927L17.641 158.863ZM17.3181 184C17.2835 188.605 17.2725 192.833 17.2933 196.59L21.2932 196.568C21.2725 192.834 21.2834 188.624 21.318 184.03L17.3181 184ZM17.5841 209.239C17.6998 211.358 17.8576 213.07 18.0841 214.209C18.1826 214.704 18.3467 215.397 18.7017 215.938C18.8743 216.201 19.3441 216.818 20.2275 216.969C21.1994 217.135 21.8857 216.62 22.1798 216.33C22.7489 215.767 23.2861 214.843 23.7704 213.91C24.2954 212.898 24.8927 211.602 25.5471 210.084L21.8739 208.5C21.7759 208.728 21.6799 208.948 21.586 209.162C21.5834 209.115 21.5807 209.068 21.5782 209.021L17.5841 209.239ZM30.2697 198.18C31.6496 194.529 33.141 190.489 34.6979 186.232L30.9412 184.858C29.3864 189.11 27.9005 193.135 26.528 196.766L30.2697 198.18ZM39.0536 174.262C40.4962 170.29 41.9581 166.269 43.409 162.311L39.6535 160.934C38.2002 164.898 36.7365 168.925 35.2939 172.897L39.0536 174.262ZM47.8327 150.39C49.433 146.145 50.9748 142.148 52.4122 138.571L48.7006 137.08C47.2488 140.693 45.6961 144.719 44.0899 148.979L47.8327 150.39ZM60.726 140.426C61.5381 144.316 62.4994 148.559 63.6112 152.894L67.4858 151.901C66.3917 147.634 65.4438 143.452 64.6415 139.609L60.726 140.426ZM67.168 165.22C68.5489 169.452 70.0849 173.559 71.7801 177.283L75.4207 175.626C73.8036 172.073 72.3195 168.113 70.9706 163.979L67.168 165.22ZM78.5851 188.616C80.2148 190.532 82.0113 192.116 83.9932 193.159C85.6336 194.022 87.2492 194.611 88.8349 194.952L89.6763 191.042C88.4733 190.783 87.1996 190.326 85.8558 189.619C84.4571 188.883 83.0433 187.683 81.6321 186.024L78.5851 188.616ZM99.1172 193.72C102.217 192.271 104.861 190.004 107.021 187.623L104.058 184.936C102.117 187.076 99.8852 188.946 97.4232 190.097L99.1172 193.72ZM130.268 181.335L142.112 184.502L143.145 180.637L131.301 177.471L130.268 181.335Z" stroke="url(#paint0_linear_8_12)" stroke-width="4" stroke-dasharray="12 12"/>
<path d="M164.759 203.486L163.88 203.251L157.957 201.668L158.99 197.803L164.821 199.362L164.469 198.848C164.519 198.814 164.57 198.779 164.623 198.742L164.592 198.686C164.733 198.609 164.876 198.536 165.02 198.469C166.061 197.752 167.514 196.742 169.236 195.523L170.392 197.155C172.874 195.398 175.91 193.208 179.07 190.836L177.87 189.236C180.675 187.13 183.571 184.886 186.254 182.678L187.525 184.223C190.591 181.7 193.393 179.218 195.49 177.032L194.046 175.648C195.541 174.089 196.529 172.823 197 171.909C197.324 171.28 197.774 170.688 198.405 170.259C199.059 169.815 199.794 169.624 200.532 169.646C201.889 169.686 203.118 170.434 204.085 171.207L202.837 172.77C204.667 174.232 206.833 176.986 209.019 180.226L210.677 179.108C212.454 181.741 214.234 184.674 215.857 187.49L214.124 188.489C215.942 191.645 217.575 194.678 218.793 197.002L220.564 196.074C221.251 197.385 221.808 198.473 222.193 199.234C222.385 199.614 222.535 199.913 222.637 200.118C222.688 200.22 222.727 200.299 222.753 200.352L222.784 200.413L222.791 200.429L222.794 200.434L222.794 200.435L222.794 200.435L222.794 200.435L221 201.318L222.794 200.435L223.452 201.772L222.359 202.785L218.638 206.234L217.279 204.767L209.836 211.664L211.196 213.131L203.754 220.028L202.394 218.562L194.952 225.459L196.311 226.926L192.59 230.374L190.602 232.217L164.759 203.486ZM164.759 203.486L165.514 202.977L165.514 202.977L165.515 202.976L165.516 202.975L165.522 202.972L165.542 202.958L165.62 202.905C165.689 202.858 165.791 202.789 165.923 202.699L165.893 202.655C165.943 202.609 165.992 202.566 166.04 202.526L164.802 201.043C165.001 200.908 165.268 200.725 165.597 200.5L166.531 202.185C166.588 202.154 166.644 202.125 166.699 202.1L166.732 202.147C166.798 202.101 166.867 202.054 166.939 202.004C167.652 201.766 168.59 201.846 169.894 202.534L170.827 200.765C173.215 202.026 175.736 204.523 178.161 207.532L176.603 208.787C178.57 211.228 180.488 214.039 182.225 216.812L183.92 215.751C185.924 218.951 187.665 222.062 188.945 224.455L164.759 203.486ZM24.0159 47.3253C24.225 51.0714 24.3841 55.287 24.5012 59.88M24.7735 84.9975C24.7744 89.0815 24.7598 93.287 24.7328 97.5778M24.6239 110.113C24.579 114.265 24.5258 118.461 24.467 122.671M24.2776 135.225C24.2101 139.437 24.1395 143.633 24.0684 147.784M23.8519 160.319C23.778 164.609 23.7066 168.813 23.6407 172.895M23.4538 185.421C23.3946 189.859 23.3477 194.076 23.318 198.015M23.2932 210.579C23.3372 218.513 23.5234 224.323 23.9286 227.125M27.7105 223.292C29.0181 220.259 30.6139 216.195 32.3988 211.473M36.8195 199.545C38.0799 196.098 39.3844 192.507 40.7088 188.86C40.8635 188.434 41.0186 188.007 41.1738 187.579M45.5312 175.623C47.0306 171.533 48.5186 167.511 49.9613 163.685M54.5564 151.825C57.4014 144.744 59.8484 139.278 61.541 136.762M63.625 137.168C64.0802 140.153 65.0973 146.418 66.6838 154.017M69.5485 166.397C72.9673 179.729 77.8112 193.916 84.1086 201.32M93.2556 206.997C103.779 209.261 111.432 198.838 114.917 192.765M122.939 190.237L134.784 193.403M146.629 196.569L158.474 199.735M65.3294 135.013L65.3294 135.013L65.1821 133.941L64.2038 133.478C63.0501 132.931 62.0235 133.453 61.5449 133.79C61.0368 134.148 60.6041 134.65 60.2471 135.128C59.5112 136.115 58.7024 137.55 57.8476 139.265L61.4273 141.049C61.637 140.629 61.8372 140.24 62.0276 139.881C62.126 140.489 62.2354 141.152 62.3559 141.866L66.3001 141.2C65.9749 139.274 65.7317 137.723 65.57 136.656C65.4892 136.122 65.4287 135.709 65.3886 135.431C65.3686 135.292 65.3536 135.187 65.3438 135.116L65.3328 135.038L65.3301 135.019L65.3295 135.014L65.3294 135.013ZM164.759 200.989C165.02 200.772 165.287 200.589 165.559 200.437L164.892 199.465L164.562 200.699L164.759 200.989ZM117.533 186.722L115.852 186.273L115.175 187.874L115.175 187.874L115.175 187.875L115.175 187.875L115.175 187.875L115.175 187.875L115.171 187.885L115.15 187.933C115.131 187.977 115.1 188.046 115.059 188.137C114.976 188.32 114.85 188.593 114.682 188.94C114.346 189.633 113.842 190.619 113.182 191.769L116.652 193.761C117.266 192.689 117.757 191.747 118.118 191.019L122.423 192.169L123.456 188.305L117.533 186.722ZM19.6845 30.5064C19.6629 30.4876 19.6632 30.4882 19.6814 30.5191C19.729 30.6 19.8986 30.8886 20.1156 31.5788C20.3822 32.4267 20.6411 33.6125 20.8824 35.1445L24.8337 34.5222C24.5782 32.8996 24.2825 31.4957 23.9315 30.3791C23.6137 29.3683 23.1426 28.2158 22.3155 27.4936L19.6845 30.5064ZM22.019 47.4367C22.2267 51.1572 22.3851 55.3518 22.5018 59.931L26.5005 59.829C26.3831 55.2222 26.2233 50.9855 26.0128 47.2138L22.019 47.4367ZM22.7149 72.4942C22.7543 76.4962 22.7726 80.6783 22.7735 84.998L26.7735 84.9971C26.7726 80.667 26.7542 76.4718 26.7147 72.4548L22.7149 72.4942ZM22.7329 97.5652C22.707 101.672 22.6698 105.858 22.624 110.092L26.6238 110.135C26.6696 105.897 26.7069 101.705 26.7328 97.5904L22.7329 97.5652ZM22.4672 122.644C22.4088 126.822 22.3449 131.015 22.2779 135.193L26.2773 135.258C26.3444 131.077 26.4084 126.881 26.4668 122.699L22.4672 122.644ZM22.0686 147.749C22.0253 150.281 21.9818 152.795 21.9386 155.286C21.9096 156.963 21.8807 158.63 21.8522 160.285L25.8516 160.354C25.8801 158.7 25.909 157.033 25.938 155.356C25.9811 152.865 26.0247 150.349 26.0681 147.818L22.0686 147.749ZM21.641 172.863C21.5711 177.191 21.5076 181.382 21.454 185.394L25.4537 185.448C25.5071 181.44 25.5706 177.253 25.6404 172.927L21.641 172.863ZM21.3181 198C21.2835 202.605 21.2725 206.833 21.2933 210.59L25.2932 210.568C25.2725 206.834 25.2834 202.624 25.318 198.03L21.3181 198ZM21.5841 223.239C21.6998 225.358 21.8576 227.07 22.0841 228.209C22.1826 228.704 22.3467 229.397 22.7017 229.938C22.8743 230.201 23.3441 230.818 24.2275 230.969C25.1994 231.135 25.8857 230.62 26.1798 230.33C26.7489 229.767 27.2861 228.843 27.7704 227.91C28.2954 226.898 28.8927 225.602 29.5471 224.084L25.8739 222.5C25.7759 222.728 25.6799 222.948 25.586 223.162C25.5834 223.115 25.5807 223.068 25.5782 223.021L21.5841 223.239ZM34.2697 212.18C35.6496 208.529 37.141 204.489 38.6979 200.232L34.9412 198.858C33.3864 203.11 31.9005 207.135 30.528 210.766L34.2697 212.18ZM43.0536 188.262C44.4962 184.29 45.9581 180.269 47.409 176.311L43.6535 174.934C42.2002 178.898 40.7365 182.925 39.2939 186.897L43.0536 188.262ZM51.8327 164.39C53.433 160.145 54.9748 156.148 56.4122 152.571L52.7006 151.08C51.2488 154.693 49.6961 158.719 48.0899 162.979L51.8327 164.39ZM64.726 154.426C65.5381 158.316 66.4994 162.559 67.6112 166.894L71.4858 165.901C70.3917 161.634 69.4438 157.452 68.6415 153.609L64.726 154.426ZM71.168 179.22C72.5489 183.452 74.0849 187.559 75.7801 191.283L79.4207 189.626C77.8036 186.073 76.3195 182.113 74.9706 177.979L71.168 179.22ZM82.5851 202.616C84.2148 204.532 86.0113 206.116 87.9932 207.159C89.6336 208.022 91.2492 208.611 92.8349 208.952L93.6763 205.042C92.4733 204.783 91.1996 204.326 89.8558 203.619C88.4571 202.883 87.0433 201.683 85.6321 200.024L82.5851 202.616ZM103.117 207.72C106.217 206.271 108.861 204.004 111.021 201.623L108.058 198.936C106.117 201.076 103.885 202.946 101.423 204.097L103.117 207.72ZM134.268 195.335L146.112 198.502L147.145 194.637L135.301 191.471L134.268 195.335Z" stroke="url(#paint1_linear_8_12)" stroke-width="4" stroke-dasharray="12 12"/>
<path d="M174.759 183.486L173.88 183.251L167.957 181.668L168.99 177.803L174.821 179.362L174.469 178.848C174.519 178.814 174.57 178.779 174.623 178.742L174.592 178.686C174.733 178.609 174.875 178.536 175.02 178.469C176.061 177.752 177.514 176.742 179.236 175.523L180.392 177.155C182.874 175.398 185.91 173.208 189.07 170.836L187.87 169.236C190.675 167.13 193.571 164.886 196.254 162.678L197.525 164.223C200.591 161.7 203.393 159.218 205.49 157.032L204.046 155.648C205.541 154.089 206.529 152.823 207 151.909C207.323 151.28 207.774 150.688 208.405 150.259C209.058 149.815 209.794 149.624 210.532 149.646C211.889 149.686 213.118 150.434 214.085 151.207L212.837 152.77C214.667 154.232 216.832 156.986 219.019 160.226L220.677 159.108C222.454 161.741 224.234 164.674 225.857 167.49L224.124 168.489C225.942 171.645 227.575 174.678 228.793 177.002L230.564 176.074C231.251 177.385 231.807 178.473 232.192 179.234C232.385 179.614 232.535 179.913 232.637 180.118C232.688 180.22 232.727 180.299 232.753 180.352L232.783 180.413L232.791 180.429L232.793 180.434L232.794 180.435L232.794 180.435L232.794 180.435L231 181.318L232.794 180.435L233.452 181.772L232.359 182.785L228.638 186.234L227.279 184.767L219.836 191.664L221.196 193.131L213.754 200.028L212.394 198.562L204.952 205.459L206.311 206.926L202.59 210.374L200.602 212.217L174.759 183.486ZM174.759 183.486L175.514 182.977L175.514 182.977L175.515 182.976L175.516 182.975L175.522 182.972L175.542 182.958L175.62 182.905C175.689 182.858 175.791 182.789 175.923 182.699L175.893 182.655C175.942 182.609 175.991 182.566 176.04 182.526L174.802 181.043C175.001 180.908 175.268 180.725 175.597 180.5L176.531 182.185C176.588 182.154 176.644 182.125 176.699 182.1L176.732 182.147C176.798 182.101 176.867 182.054 176.939 182.004C177.652 181.766 178.59 181.846 179.894 182.534L180.827 180.765C183.215 182.026 185.736 184.523 188.161 187.532L186.603 188.787C188.569 191.228 190.488 194.039 192.225 196.812L193.92 195.751C195.924 198.951 197.665 202.062 198.945 204.455L174.759 183.486ZM34.0158 27.3253C34.2249 31.0714 34.384 35.287 34.5011 39.88M34.7734 64.9975C34.7743 69.0815 34.7597 73.287 34.7327 77.5778M34.6238 90.1132C34.5789 94.2646 34.5257 98.4607 34.4669 102.671M34.2775 115.225C34.21 119.437 34.1394 123.633 34.0683 127.784M33.8518 140.319C33.7779 144.609 33.7065 148.813 33.6406 152.895M33.4538 165.421C33.3945 169.859 33.3476 174.076 33.3179 178.015M33.2932 190.579C33.3371 198.513 33.5233 204.323 33.9285 207.125M37.7104 203.292C39.018 200.259 40.6138 196.195 42.3987 191.473M46.8195 179.545C48.0799 176.098 49.3843 172.507 50.7087 168.86C50.8634 168.434 51.0185 168.007 51.1737 167.579M55.5311 155.623C57.0305 151.533 58.5185 147.511 59.9612 143.685M64.5563 131.825C67.4013 124.744 69.8483 119.278 71.541 116.762M73.6249 117.168C74.0801 120.153 75.0973 126.418 76.6837 134.017M79.5484 146.397C82.9672 159.729 87.8111 173.916 94.1085 181.32M103.256 186.997C113.779 189.261 121.431 178.838 124.917 172.765M132.939 170.237L144.784 173.403M156.629 176.569L168.474 179.735M75.3293 115.013L75.3293 115.013L75.182 113.941L74.2038 113.478C73.05 112.931 72.0234 113.453 71.5448 113.79C71.0368 114.148 70.604 114.65 70.247 115.128C69.5111 116.115 68.7023 117.55 67.8475 119.265L71.4272 121.049C71.6369 120.629 71.8371 120.24 72.0275 119.881C72.1259 120.489 72.2353 121.152 72.3558 121.866L76.3 121.2C75.9749 119.274 75.7316 117.723 75.5699 116.656C75.4891 116.122 75.4286 115.709 75.3885 115.431C75.3685 115.292 75.3535 115.187 75.3437 115.116L75.3327 115.038L75.33 115.019L75.3294 115.014L75.3293 115.013ZM174.759 180.989C175.02 180.772 175.287 180.589 175.559 180.437L174.892 179.465L174.562 180.699L174.759 180.989ZM127.533 166.722L125.852 166.273L125.175 167.874L125.175 167.874L125.175 167.875L125.175 167.875L125.175 167.875L125.175 167.875L125.171 167.885L125.15 167.933C125.13 167.977 125.1 168.046 125.059 168.137C124.976 168.32 124.85 168.593 124.682 168.94C124.346 169.633 123.842 170.619 123.182 171.769L126.652 173.761C127.266 172.689 127.757 171.747 128.118 171.019L132.423 172.169L133.456 168.305L127.533 166.722ZM29.6844 10.5064C29.6628 10.4876 29.6631 10.4882 29.6813 10.5191C29.7289 10.6 29.8985 10.8886 30.1155 11.5788C30.3821 12.4267 30.6411 13.6125 30.8823 15.1445L34.8336 14.5222C34.5781 12.8996 34.2824 11.4957 33.9314 10.3791C33.6136 9.36831 33.1425 8.21581 32.3154 7.49356L29.6844 10.5064ZM32.0189 27.4367C32.2266 31.1572 32.385 35.3518 32.5017 39.931L36.5004 39.829C36.383 35.2222 36.2232 30.9855 36.0127 27.2138L32.0189 27.4367ZM32.7148 52.4942C32.7542 56.4962 32.7725 60.6783 32.7734 64.998L36.7734 64.9971C36.7725 60.667 36.7541 56.4718 36.7146 52.4548L32.7148 52.4942ZM32.7328 77.5652C32.7069 81.6725 32.6697 85.8585 32.6239 90.0915L36.6237 90.1348C36.6696 85.8967 36.7068 81.7046 36.7327 77.5904L32.7328 77.5652ZM32.4671 102.644C32.4087 106.822 32.3448 111.015 32.2778 115.193L36.2773 115.258C36.3443 111.077 36.4083 106.881 36.4667 102.699L32.4671 102.644ZM32.0686 127.749C32.0252 130.281 31.9817 132.795 31.9385 135.286C31.9095 136.963 31.8806 138.63 31.8521 140.285L35.8515 140.354C35.88 138.7 35.9089 137.033 35.9379 135.356C35.9811 132.865 36.0246 130.349 36.068 127.818L32.0686 127.749ZM31.6409 152.863C31.571 157.191 31.5075 161.382 31.4539 165.394L35.4536 165.448C35.5071 161.44 35.5706 157.253 35.6403 152.927L31.6409 152.863ZM31.318 178C31.2834 182.605 31.2724 186.833 31.2932 190.59L35.2931 190.568C35.2724 186.834 35.2833 182.624 35.3179 178.03L31.318 178ZM31.584 203.239C31.6997 205.358 31.8575 207.07 32.084 208.209C32.1825 208.704 32.3466 209.397 32.7016 209.938C32.8742 210.201 33.344 210.818 34.2274 210.969C35.1993 211.135 35.8856 210.62 36.1797 210.33C36.7488 209.767 37.286 208.843 37.7703 207.91C38.2953 206.898 38.8926 205.602 39.547 204.084L35.8738 202.5C35.7758 202.728 35.6799 202.948 35.5859 203.162C35.5833 203.115 35.5807 203.068 35.5781 203.021L31.584 203.239ZM44.2696 192.18C45.6495 188.529 47.141 184.489 48.6978 180.232L44.9411 178.858C43.3863 183.11 41.9005 187.135 40.5279 190.766L44.2696 192.18ZM53.0536 168.262C54.4961 164.29 55.958 160.269 57.4089 156.311L53.6534 154.934C52.2001 158.898 50.7364 162.925 49.2939 166.897L53.0536 168.262ZM61.8326 144.39C63.4329 140.145 64.9747 136.148 66.4121 132.571L62.7005 131.08C61.2487 134.693 59.696 138.719 58.0898 142.979L61.8326 144.39ZM74.7259 134.426C75.538 138.316 76.4993 142.559 77.6111 146.894L81.4857 145.901C80.3917 141.634 79.4437 137.452 78.6415 133.609L74.7259 134.426ZM81.1679 159.22C82.5488 163.452 84.0848 167.559 85.78 171.283L89.4206 169.626C87.8035 166.073 86.3194 162.113 84.9705 157.979L81.1679 159.22ZM92.585 182.616C94.2147 184.532 96.0112 186.116 97.9931 187.159C99.6335 188.022 101.249 188.611 102.835 188.952L103.676 185.042C102.473 184.783 101.2 184.326 99.8557 183.619C98.457 182.883 97.0432 181.683 95.632 180.024L92.585 182.616ZM113.117 187.72C116.217 186.271 118.861 184.004 121.02 181.623L118.058 178.936C116.116 181.076 113.885 182.946 111.423 184.097L113.117 187.72ZM144.268 175.335L156.112 178.502L157.145 174.637L145.3 171.471L144.268 175.335Z" stroke="url(#paint2_linear_8_12)" stroke-width="4" stroke-dasharray="12 12"/>
<path d="M178.759 197.486L177.88 197.251L171.957 195.668L172.99 191.803L178.821 193.362L178.469 192.848C178.519 192.814 178.57 192.779 178.623 192.742L178.592 192.686C178.733 192.609 178.875 192.536 179.02 192.469C180.061 191.752 181.514 190.742 183.236 189.523L184.392 191.155C186.874 189.398 189.91 187.208 193.07 184.836L191.87 183.236C194.675 181.13 197.571 178.886 200.254 176.678L201.525 178.223C204.591 175.7 207.393 173.218 209.49 171.032L208.046 169.648C209.541 168.089 210.529 166.823 211 165.909C211.323 165.28 211.774 164.688 212.405 164.259C213.058 163.815 213.794 163.624 214.532 163.646C215.889 163.686 217.118 164.434 218.085 165.207L216.837 166.77C218.667 168.232 220.832 170.986 223.019 174.226L224.677 173.108C226.454 175.741 228.234 178.674 229.857 181.49L228.124 182.489C229.942 185.645 231.575 188.678 232.793 191.002L234.564 190.074C235.251 191.385 235.807 192.473 236.192 193.234C236.385 193.614 236.535 193.913 236.637 194.118C236.688 194.22 236.727 194.299 236.753 194.352L236.783 194.413L236.791 194.429L236.793 194.434L236.794 194.435L236.794 194.435L236.794 194.435L235 195.318L236.794 194.435L237.452 195.772L236.359 196.785L232.638 200.234L231.279 198.767L223.836 205.664L225.196 207.131L217.754 214.028L216.394 212.562L208.952 219.459L210.311 220.926L206.59 224.374L204.602 226.217L178.759 197.486ZM178.759 197.486L179.514 196.977L179.514 196.977L179.515 196.976L179.516 196.975L179.522 196.972L179.542 196.958L179.62 196.905C179.689 196.858 179.791 196.789 179.923 196.699L179.893 196.655C179.942 196.609 179.991 196.566 180.04 196.526L178.802 195.043C179.001 194.908 179.268 194.725 179.597 194.5L180.531 196.185C180.588 196.154 180.644 196.125 180.699 196.1L180.732 196.147C180.798 196.101 180.867 196.054 180.939 196.004C181.652 195.766 182.59 195.846 183.894 196.534L184.827 194.765C187.215 196.026 189.736 198.523 192.161 201.532L190.603 202.787C192.569 205.228 194.488 208.039 196.225 210.812L197.92 209.751C199.924 212.951 201.665 216.062 202.945 218.455L178.759 197.486ZM38.0158 41.3253C38.2249 45.0714 38.384 49.287 38.5011 53.88M38.7734 78.9975C38.7743 83.0815 38.7597 87.287 38.7327 91.5778M38.6238 104.113C38.5789 108.265 38.5257 112.461 38.4669 116.671M38.2775 129.225C38.21 133.437 38.1394 137.633 38.0683 141.784M37.8518 154.319C37.7779 158.609 37.7065 162.813 37.6406 166.895M37.4538 179.421C37.3945 183.859 37.3476 188.076 37.3179 192.015M37.2932 204.579C37.3371 212.513 37.5233 218.323 37.9285 221.125M41.7104 217.292C43.018 214.259 44.6138 210.195 46.3987 205.473M50.8195 193.545C52.0799 190.098 53.3843 186.507 54.7087 182.86C54.8634 182.434 55.0185 182.007 55.1737 181.579M59.5311 169.623C61.0305 165.533 62.5185 161.511 63.9612 157.685M68.5563 145.825C71.4013 138.744 73.8483 133.278 75.541 130.762M77.6249 131.168C78.0801 134.153 79.0973 140.418 80.6837 148.017M83.5484 160.397C86.9672 173.729 91.8111 187.916 98.1085 195.32M107.256 200.997C117.779 203.261 125.431 192.838 128.917 186.765M136.939 184.237L148.784 187.403M160.629 190.569L172.474 193.735M79.3293 129.013L79.3293 129.013L79.182 127.941L78.2038 127.478C77.05 126.931 76.0234 127.453 75.5448 127.79C75.0368 128.148 74.604 128.65 74.247 129.128C73.5111 130.115 72.7023 131.55 71.8475 133.265L75.4272 135.049C75.6369 134.629 75.8371 134.24 76.0275 133.881C76.1259 134.489 76.2353 135.152 76.3558 135.866L80.3 135.2C79.9749 133.274 79.7316 131.723 79.5699 130.656C79.4891 130.122 79.4286 129.709 79.3885 129.431C79.3685 129.292 79.3535 129.187 79.3437 129.116L79.3327 129.038L79.33 129.019L79.3294 129.014L79.3293 129.013ZM178.759 194.989C179.02 194.772 179.287 194.589 179.559 194.437L178.892 193.465L178.562 194.699L178.759 194.989ZM131.533 180.722L129.852 180.273L129.175 181.874L129.175 181.874L129.175 181.875L129.175 181.875L129.175 181.875L129.175 181.875L129.171 181.885L129.15 181.933C129.13 181.977 129.1 182.046 129.059 182.137C128.976 182.32 128.85 182.593 128.682 182.94C128.346 183.633 127.842 184.619 127.182 185.769L130.652 187.761C131.266 186.689 131.757 185.747 132.118 185.019L136.423 186.169L137.456 182.305L131.533 180.722ZM33.6844 24.5064C33.6628 24.4876 33.6631 24.4882 33.6813 24.5191C33.7289 24.6 33.8985 24.8886 34.1155 25.5788C34.3821 26.4267 34.6411 27.6125 34.8823 29.1445L38.8336 28.5222C38.5781 26.8996 38.2824 25.4957 37.9314 24.3791C37.6136 23.3683 37.1425 22.2158 36.3154 21.4936L33.6844 24.5064ZM36.0189 41.4367C36.2266 45.1572 36.385 49.3518 36.5017 53.931L40.5004 53.829C40.383 49.2222 40.2232 44.9855 40.0127 41.2138L36.0189 41.4367ZM36.7148 66.4942C36.7542 70.4962 36.7725 74.6783 36.7734 78.998L40.7734 78.9971C40.7725 74.667 40.7541 70.4718 40.7146 66.4548L36.7148 66.4942ZM36.7328 91.5652C36.7069 95.6725 36.6697 99.8585 36.6239 104.092L40.6237 104.135C40.6696 99.8967 40.7068 95.7046 40.7327 91.5904L36.7328 91.5652ZM36.4671 116.644C36.4087 120.822 36.3448 125.015 36.2778 129.193L40.2773 129.258C40.3443 125.077 40.4083 120.881 40.4667 116.699L36.4671 116.644ZM36.0686 141.749C36.0252 144.281 35.9817 146.795 35.9385 149.286C35.9095 150.963 35.8806 152.63 35.8521 154.285L39.8515 154.354C39.88 152.7 39.9089 151.033 39.9379 149.356C39.9811 146.865 40.0246 144.349 40.068 141.818L36.0686 141.749ZM35.6409 166.863C35.571 171.191 35.5075 175.382 35.4539 179.394L39.4536 179.448C39.5071 175.44 39.5706 171.253 39.6403 166.927L35.6409 166.863ZM35.318 192C35.2834 196.605 35.2724 200.833 35.2932 204.59L39.2931 204.568C39.2724 200.834 39.2833 196.624 39.3179 192.03L35.318 192ZM35.584 217.239C35.6997 219.358 35.8575 221.07 36.084 222.209C36.1825 222.704 36.3466 223.397 36.7016 223.938C36.8742 224.201 37.344 224.818 38.2274 224.969C39.1993 225.135 39.8856 224.62 40.1797 224.33C40.7488 223.767 41.286 222.843 41.7703 221.91C42.2953 220.898 42.8926 219.602 43.547 218.084L39.8738 216.5C39.7758 216.728 39.6799 216.948 39.5859 217.162C39.5833 217.115 39.5807 217.068 39.5781 217.021L35.584 217.239ZM48.2696 206.18C49.6495 202.529 51.141 198.489 52.6978 194.232L48.9411 192.858C47.3863 197.11 45.9005 201.135 44.5279 204.766L48.2696 206.18ZM57.0536 182.262C58.4961 178.29 59.958 174.269 61.4089 170.311L57.6534 168.934C56.2001 172.898 54.7364 176.925 53.2939 180.897L57.0536 182.262ZM65.8326 158.39C67.4329 154.145 68.9747 150.148 70.4121 146.571L66.7005 145.08C65.2487 148.693 63.696 152.719 62.0898 156.979L65.8326 158.39ZM78.7259 148.426C79.538 152.316 80.4993 156.559 81.6111 160.894L85.4857 159.901C84.3917 155.634 83.4437 151.452 82.6415 147.609L78.7259 148.426ZM85.1679 173.22C86.5488 177.452 88.0848 181.559 89.78 185.283L93.4206 183.626C91.8035 180.073 90.3194 176.113 88.9705 171.979L85.1679 173.22ZM96.585 196.616C98.2147 198.532 100.011 200.116 101.993 201.159C103.633 202.022 105.249 202.611 106.835 202.952L107.676 199.042C106.473 198.783 105.2 198.326 103.856 197.619C102.457 196.883 101.043 195.683 99.632 194.024L96.585 196.616ZM117.117 201.72C120.217 200.271 122.861 198.004 125.02 195.623L122.058 192.936C120.116 195.076 117.885 196.946 115.423 198.097L117.117 201.72ZM148.268 189.335L160.112 192.502L161.145 188.637L149.3 185.471L148.268 189.335Z" stroke="url(#paint3_linear_8_12)" stroke-width="4" stroke-dasharray="12 12"/>
<path d="M152.759 189.486L151.88 189.251L145.957 187.668L146.99 183.803L152.821 185.362L152.469 184.848C152.519 184.814 152.57 184.779 152.623 184.742L152.592 184.686C152.733 184.609 152.876 184.536 153.02 184.469C154.061 183.752 155.514 182.742 157.236 181.523L158.392 183.155C160.874 181.398 163.91 179.208 167.07 176.836L165.87 175.236C168.675 173.13 171.571 170.886 174.254 168.678L175.525 170.223C178.591 167.7 181.393 165.218 183.49 163.032L182.046 161.648C183.541 160.089 184.529 158.823 185 157.909C185.324 157.28 185.774 156.688 186.405 156.259C187.059 155.815 187.794 155.624 188.532 155.646C189.889 155.686 191.118 156.434 192.085 157.207L190.837 158.77C192.667 160.232 194.833 162.986 197.019 166.226L198.677 165.108C200.454 167.741 202.234 170.674 203.857 173.49L202.124 174.489C203.942 177.645 205.575 180.678 206.793 183.002L208.564 182.074C209.251 183.385 209.808 184.473 210.193 185.234C210.385 185.614 210.535 185.913 210.637 186.118C210.688 186.22 210.727 186.299 210.753 186.352L210.784 186.413L210.791 186.429L210.794 186.434L210.794 186.435L210.794 186.435L210.794 186.435L209 187.318L210.794 186.435L211.452 187.772L210.359 188.785L206.638 192.234L205.279 190.767L197.836 197.664L199.196 199.131L191.754 206.028L190.394 204.562L182.952 211.459L184.311 212.926L180.59 216.374L178.602 218.217L152.759 189.486ZM152.759 189.486L153.514 188.977L153.514 188.977L153.515 188.976L153.516 188.975L153.522 188.972L153.542 188.958L153.62 188.905C153.689 188.858 153.791 188.789 153.923 188.699L153.893 188.655C153.943 188.609 153.992 188.566 154.04 188.526L152.802 187.043C153.001 186.908 153.268 186.725 153.597 186.5L154.531 188.185C154.588 188.154 154.644 188.125 154.699 188.1L154.732 188.147C154.798 188.101 154.867 188.054 154.939 188.004C155.652 187.766 156.59 187.846 157.894 188.534L158.827 186.765C161.215 188.026 163.736 190.523 166.161 193.532L164.603 194.787C166.57 197.228 168.488 200.039 170.225 202.812L171.92 201.751C173.924 204.95 175.665 208.062 176.945 210.454L152.759 189.486ZM12.0159 33.3253C12.225 37.0714 12.3841 41.287 12.5012 45.88M12.7735 70.9975C12.7744 75.0815 12.7598 79.287 12.7328 83.5778M12.6239 96.1132C12.579 100.265 12.5258 104.461 12.467 108.671M12.2776 121.225C12.2101 125.436 12.1395 129.633 12.0684 133.784M11.8519 146.319C11.778 150.609 11.7066 154.813 11.6407 158.895M11.4538 171.421C11.3946 175.859 11.3477 180.076 11.318 184.015M11.2932 196.579C11.3372 204.513 11.5234 210.323 11.9286 213.125M15.7105 209.292C17.0181 206.259 18.6139 202.195 20.3988 197.473M24.8195 185.545C26.0799 182.098 27.3844 178.507 28.7088 174.86C28.8635 174.434 29.0186 174.007 29.1738 173.579M33.5312 161.623C35.0306 157.533 36.5186 153.511 37.9613 149.685M42.5564 137.825C45.4014 130.744 47.8484 125.278 49.541 122.762M51.625 123.168C52.0802 126.153 53.0973 132.418 54.6838 140.017M57.5485 152.397C60.9673 165.729 65.8112 179.916 72.1086 187.32M81.2556 192.997C91.7789 195.261 99.4316 184.838 102.917 178.765M110.939 176.237L122.784 179.403M134.629 182.569L146.474 185.735M53.3294 121.013L53.3294 121.013L53.1821 119.941L52.2038 119.478C51.0501 118.931 50.0235 119.453 49.5449 119.79C49.0368 120.148 48.6041 120.65 48.2471 121.128C47.5112 122.115 46.7024 123.55 45.8476 125.265L49.4273 127.049C49.637 126.629 49.8372 126.24 50.0276 125.881C50.126 126.489 50.2354 127.152 50.3559 127.866L54.3001 127.2C53.9749 125.274 53.7317 123.723 53.57 122.656C53.4892 122.122 53.4287 121.709 53.3886 121.431C53.3686 121.292 53.3536 121.187 53.3438 121.116L53.3328 121.038L53.3301 121.019L53.3295 121.014L53.3294 121.013ZM152.759 186.989C153.02 186.772 153.287 186.588 153.559 186.437L152.892 185.465L152.562 186.699L152.759 186.989ZM105.533 172.722L103.852 172.273L103.175 173.874L103.175 173.874L103.175 173.875L103.175 173.875L103.175 173.875L103.175 173.875L103.171 173.885L103.15 173.933C103.131 173.977 103.1 174.046 103.059 174.137C102.976 174.32 102.85 174.593 102.682 174.94C102.346 175.633 101.842 176.619 101.182 177.769L104.652 179.76C105.266 178.689 105.757 177.747 106.118 177.019L110.423 178.169L111.456 174.305L105.533 172.722ZM7.68446 16.5064C7.66286 16.4876 7.66322 16.4882 7.68138 16.5191C7.72895 16.6 7.89864 16.8886 8.11563 17.5788C8.38222 18.4267 8.64115 19.6125 8.88242 21.1445L12.8337 20.5222C12.5782 18.8996 12.2825 17.4957 11.9315 16.3791C11.6137 15.3683 11.1426 14.2158 10.3155 13.4936L7.68446 16.5064ZM10.019 33.4367C10.2267 37.1572 10.3851 41.3518 10.5018 45.931L14.5005 45.829C14.3831 41.2222 14.2233 36.9855 14.0128 33.2138L10.019 33.4367ZM10.7149 58.4942C10.7543 62.4962 10.7726 66.6783 10.7735 70.998L14.7735 70.9971C14.7726 66.6669 14.7542 62.4718 14.7147 58.4548L10.7149 58.4942ZM10.7329 83.5652C10.707 87.6725 10.6698 91.8585 10.624 96.0915L14.6238 96.1348C14.6696 91.8967 14.7069 87.7046 14.7328 83.5903L10.7329 83.5652ZM10.4672 108.643C10.4088 112.822 10.3449 117.015 10.2779 121.193L14.2773 121.257C14.3444 117.077 14.4084 112.881 14.4668 108.699L10.4672 108.643ZM10.0686 133.749C10.0253 136.281 9.98175 138.795 9.93861 141.286C9.90957 142.964 9.88071 144.63 9.85221 146.285L13.8516 146.354C13.8801 144.7 13.909 143.034 13.938 141.356C13.9811 138.865 14.0247 136.349 14.0681 133.818L10.0686 133.749ZM9.64095 158.863C9.57113 163.191 9.50757 167.382 9.45402 171.394L13.4537 171.448C13.5071 167.44 13.5706 163.253 13.6404 158.927L9.64095 158.863ZM9.3181 184C9.28346 188.605 9.27246 192.833 9.29327 196.59L13.2932 196.568C13.2725 192.834 13.2834 188.624 13.318 184.03L9.3181 184ZM9.5841 209.239C9.69982 211.358 9.85755 213.07 10.0841 214.209C10.1826 214.704 10.3467 215.397 10.7017 215.938C10.8743 216.201 11.3441 216.818 12.2275 216.969C13.1994 217.135 13.8857 216.62 14.1798 216.33C14.7489 215.767 15.2861 214.843 15.7704 213.91C16.2954 212.898 16.8927 211.602 17.5471 210.084L13.8739 208.5C13.7759 208.728 13.6799 208.948 13.586 209.162C13.5834 209.115 13.5807 209.068 13.5782 209.021L9.5841 209.239ZM22.2697 198.18C23.6496 194.529 25.141 190.489 26.6979 186.232L22.9412 184.858C21.3864 189.11 19.9005 193.135 18.528 196.766L22.2697 198.18ZM31.0536 174.262C32.4962 170.29 33.9581 166.269 35.409 162.311L31.6535 160.934C30.2002 164.898 28.7365 168.925 27.2939 172.897L31.0536 174.262ZM39.8327 150.39C41.433 146.145 42.9748 142.148 44.4122 138.571L40.7006 137.08C39.2488 140.693 37.6961 144.719 36.0899 148.979L39.8327 150.39ZM52.726 140.426C53.5381 144.316 54.4994 148.559 55.6112 152.894L59.4858 151.901C58.3917 147.634 57.4438 143.452 56.6415 139.609L52.726 140.426ZM59.168 165.22C60.5489 169.452 62.0849 173.559 63.7801 177.283L67.4207 175.626C65.8036 172.073 64.3195 168.113 62.9706 163.979L59.168 165.22ZM70.5851 188.616C72.2148 190.532 74.0113 192.116 75.9932 193.159C77.6336 194.022 79.2492 194.611 80.8349 194.952L81.6763 191.042C80.4733 190.783 79.1996 190.326 77.8558 189.619C76.4571 188.883 75.0433 187.683 73.6321 186.024L70.5851 188.616ZM91.1172 193.72C94.2167 192.271 96.8607 190.004 99.0206 187.623L96.0581 184.936C94.1165 187.076 91.8852 188.946 89.4232 190.097L91.1172 193.72ZM122.268 181.335L134.112 184.502L135.145 180.637L123.301 177.471L122.268 181.335Z" stroke="url(#paint4_linear_8_12)" stroke-width="4" stroke-dasharray="12 12"/>
<path d="M156.759 203.486L155.88 203.251L149.957 201.668L150.99 197.803L156.821 199.362L156.469 198.848C156.519 198.814 156.57 198.779 156.623 198.742L156.592 198.686C156.733 198.609 156.876 198.536 157.02 198.469C158.061 197.752 159.514 196.742 161.236 195.523L162.392 197.155C164.874 195.398 167.91 193.208 171.07 190.836L169.87 189.236C172.675 187.13 175.571 184.886 178.254 182.678L179.525 184.223C182.591 181.7 185.393 179.218 187.49 177.032L186.046 175.648C187.541 174.089 188.529 172.823 189 171.909C189.324 171.28 189.774 170.688 190.405 170.259C191.059 169.815 191.794 169.624 192.532 169.646C193.889 169.686 195.118 170.434 196.085 171.207L194.837 172.77C196.667 174.232 198.833 176.986 201.019 180.226L202.677 179.108C204.454 181.741 206.234 184.674 207.857 187.49L206.124 188.489C207.942 191.645 209.575 194.678 210.793 197.002L212.564 196.074C213.251 197.385 213.808 198.473 214.193 199.234C214.385 199.614 214.535 199.913 214.637 200.118C214.688 200.22 214.727 200.299 214.753 200.352L214.784 200.413L214.791 200.429L214.794 200.434L214.794 200.435L214.794 200.435L214.794 200.435L213 201.318L214.794 200.435L215.452 201.772L214.359 202.785L210.638 206.234L209.279 204.767L201.836 211.664L203.196 213.131L195.754 220.028L194.394 218.562L186.952 225.459L188.311 226.926L184.59 230.374L182.602 232.217L156.759 203.486ZM156.759 203.486L157.514 202.977L157.514 202.977L157.515 202.976L157.516 202.975L157.522 202.972L157.542 202.958L157.62 202.905C157.689 202.858 157.791 202.789 157.923 202.699L157.893 202.655C157.943 202.609 157.992 202.566 158.04 202.526L156.802 201.043C157.001 200.908 157.268 200.725 157.597 200.5L158.531 202.185C158.588 202.154 158.644 202.125 158.699 202.1L158.732 202.147C158.798 202.101 158.867 202.054 158.939 202.004C159.652 201.766 160.59 201.846 161.894 202.534L162.827 200.765C165.215 202.026 167.736 204.523 170.161 207.532L168.603 208.787C170.57 211.228 172.488 214.039 174.225 216.812L175.92 215.751C177.924 218.95 179.665 222.062 180.945 224.454L156.759 203.486ZM16.0159 47.3253C16.225 51.0714 16.3841 55.287 16.5012 59.88M16.7735 84.9975C16.7744 89.0815 16.7598 93.287 16.7328 97.5778M16.6239 110.113C16.579 114.265 16.5258 118.461 16.467 122.671M16.2776 135.225C16.2101 139.436 16.1395 143.633 16.0684 147.784M15.8519 160.319C15.778 164.609 15.7066 168.813 15.6407 172.895M15.4538 185.421C15.3946 189.859 15.3477 194.076 15.318 198.015M15.2932 210.579C15.3372 218.513 15.5234 224.323 15.9286 227.125M19.7105 223.292C21.0181 220.259 22.6139 216.195 24.3988 211.473M28.8195 199.545C30.0799 196.098 31.3844 192.507 32.7088 188.86C32.8635 188.434 33.0186 188.007 33.1738 187.579M37.5312 175.623C39.0306 171.533 40.5186 167.511 41.9613 163.685M46.5564 151.825C49.4014 144.744 51.8484 139.278 53.541 136.762M55.625 137.168C56.0802 140.153 57.0973 146.418 58.6838 154.017M61.5485 166.397C64.9673 179.729 69.8112 193.916 76.1086 201.32M85.2556 206.997C95.7789 209.261 103.432 198.838 106.917 192.765M114.939 190.237L126.784 193.403M138.629 196.569L150.474 199.735M57.3294 135.013L57.3294 135.013L57.1821 133.941L56.2038 133.478C55.0501 132.931 54.0235 133.453 53.5449 133.79C53.0368 134.148 52.6041 134.65 52.2471 135.128C51.5112 136.115 50.7024 137.55 49.8476 139.265L53.4273 141.049C53.637 140.629 53.8372 140.24 54.0276 139.881C54.126 140.489 54.2354 141.152 54.3559 141.866L58.3001 141.2C57.9749 139.274 57.7317 137.723 57.57 136.656C57.4892 136.122 57.4287 135.709 57.3886 135.431C57.3686 135.292 57.3536 135.187 57.3438 135.116L57.3328 135.038L57.3301 135.019L57.3295 135.014L57.3294 135.013ZM156.759 200.989C157.02 200.772 157.287 200.588 157.559 200.437L156.892 199.465L156.562 200.699L156.759 200.989ZM109.533 186.722L107.852 186.273L107.175 187.874L107.175 187.874L107.175 187.875L107.175 187.875L107.175 187.875L107.175 187.875L107.171 187.885L107.15 187.933C107.131 187.977 107.1 188.046 107.059 188.137C106.976 188.32 106.85 188.593 106.682 188.94C106.346 189.633 105.842 190.619 105.182 191.769L108.652 193.76C109.266 192.689 109.757 191.747 110.118 191.019L114.423 192.169L115.456 188.305L109.533 186.722ZM11.6845 30.5064C11.6629 30.4876 11.6632 30.4882 11.6814 30.5191C11.729 30.6 11.8986 30.8886 12.1156 31.5788C12.3822 32.4267 12.6411 33.6125 12.8824 35.1445L16.8337 34.5222C16.5782 32.8996 16.2825 31.4957 15.9315 30.3791C15.6137 29.3683 15.1426 28.2158 14.3155 27.4936L11.6845 30.5064ZM14.019 47.4367C14.2267 51.1572 14.3851 55.3518 14.5018 59.931L18.5005 59.829C18.3831 55.2222 18.2233 50.9855 18.0128 47.2138L14.019 47.4367ZM14.7149 72.4942C14.7543 76.4962 14.7726 80.6783 14.7735 84.998L18.7735 84.9971C18.7726 80.6669 18.7542 76.4718 18.7147 72.4548L14.7149 72.4942ZM14.7329 97.5652C14.707 101.672 14.6698 105.858 14.624 110.092L18.6238 110.135C18.6696 105.897 18.7069 101.705 18.7328 97.5903L14.7329 97.5652ZM14.4672 122.643C14.4088 126.822 14.3449 131.015 14.2779 135.193L18.2773 135.257C18.3444 131.077 18.4084 126.881 18.4668 122.699L14.4672 122.643ZM14.0686 147.749C14.0253 150.281 13.9817 152.795 13.9386 155.286C13.9096 156.964 13.8807 158.63 13.8522 160.285L17.8516 160.354C17.8801 158.7 17.909 157.034 17.938 155.356C17.9811 152.865 18.0247 150.349 18.0681 147.818L14.0686 147.749ZM13.641 172.863C13.5711 177.191 13.5076 181.382 13.454 185.394L17.4537 185.448C17.5071 181.44 17.5706 177.253 17.6404 172.927L13.641 172.863ZM13.3181 198C13.2835 202.605 13.2725 206.833 13.2933 210.59L17.2932 210.568C17.2725 206.834 17.2834 202.624 17.318 198.03L13.3181 198ZM13.5841 223.239C13.6998 225.358 13.8576 227.07 14.0841 228.209C14.1826 228.704 14.3467 229.397 14.7017 229.938C14.8743 230.201 15.3441 230.818 16.2275 230.969C17.1994 231.135 17.8857 230.62 18.1798 230.33C18.7489 229.767 19.2861 228.843 19.7704 227.91C20.2954 226.898 20.8927 225.602 21.5471 224.084L17.8739 222.5C17.7759 222.728 17.6799 222.948 17.586 223.162C17.5834 223.115 17.5807 223.068 17.5782 223.021L13.5841 223.239ZM26.2697 212.18C27.6496 208.529 29.141 204.489 30.6979 200.232L26.9412 198.858C25.3864 203.11 23.9005 207.135 22.528 210.766L26.2697 212.18ZM35.0536 188.262C36.4962 184.29 37.9581 180.269 39.409 176.311L35.6535 174.934C34.2002 178.898 32.7365 182.925 31.2939 186.897L35.0536 188.262ZM43.8327 164.39C45.433 160.145 46.9748 156.148 48.4122 152.571L44.7006 151.08C43.2488 154.693 41.6961 158.719 40.0899 162.979L43.8327 164.39ZM56.726 154.426C57.5381 158.316 58.4994 162.559 59.6112 166.894L63.4858 165.901C62.3917 161.634 61.4438 157.452 60.6415 153.609L56.726 154.426ZM63.168 179.22C64.5489 183.452 66.0849 187.559 67.7801 191.283L71.4207 189.626C69.8036 186.073 68.3195 182.113 66.9706 177.979L63.168 179.22ZM74.5851 202.616C76.2148 204.532 78.0113 206.116 79.9932 207.159C81.6336 208.022 83.2492 208.611 84.8349 208.952L85.6763 205.042C84.4733 204.783 83.1996 204.326 81.8558 203.619C80.4571 202.883 79.0433 201.683 77.6321 200.024L74.5851 202.616ZM95.1172 207.72C98.2167 206.271 100.861 204.004 103.021 201.623L100.058 198.936C98.1165 201.076 95.8852 202.946 93.4232 204.097L95.1172 207.72ZM126.268 195.335L138.112 198.502L139.145 194.637L127.301 191.471L126.268 195.335Z" stroke="url(#paint5_linear_8_12)" stroke-width="4" stroke-dasharray="12 12"/>
<path d="M167.759 183.486L166.88 183.251L160.957 181.668L161.99 177.803L167.821 179.362L167.469 178.848C167.519 178.814 167.57 178.779 167.623 178.742L167.592 178.686C167.733 178.609 167.875 178.536 168.02 178.469C169.061 177.752 170.514 176.742 172.236 175.523L173.392 177.155C175.874 175.398 178.91 173.208 182.07 170.836L180.87 169.236C183.675 167.13 186.571 164.886 189.254 162.678L190.525 164.223C193.591 161.7 196.393 159.218 198.49 157.032L197.046 155.648C198.541 154.089 199.529 152.823 200 151.909C200.323 151.28 200.774 150.688 201.405 150.259C202.058 149.815 202.794 149.624 203.532 149.646C204.889 149.686 206.118 150.434 207.085 151.207L205.837 152.77C207.667 154.232 209.832 156.986 212.019 160.226L213.677 159.108C215.454 161.741 217.234 164.674 218.857 167.49L217.124 168.489C218.942 171.645 220.575 174.678 221.793 177.002L223.564 176.074C224.251 177.385 224.807 178.473 225.192 179.234C225.385 179.614 225.535 179.913 225.637 180.118C225.688 180.22 225.727 180.299 225.753 180.352L225.783 180.413L225.791 180.429L225.793 180.434L225.794 180.435L225.794 180.435L225.794 180.435L224 181.318L225.794 180.435L226.452 181.772L225.359 182.785L221.638 186.234L220.279 184.767L212.836 191.664L214.196 193.131L206.754 200.028L205.394 198.562L197.952 205.459L199.311 206.926L195.59 210.374L193.602 212.217L167.759 183.486ZM167.759 183.486L168.514 182.977L168.514 182.977L168.515 182.976L168.516 182.975L168.522 182.972L168.542 182.958L168.62 182.905C168.689 182.858 168.791 182.789 168.923 182.699L168.893 182.655C168.942 182.609 168.991 182.566 169.04 182.526L167.802 181.043C168.001 180.908 168.268 180.725 168.597 180.5L169.531 182.185C169.588 182.154 169.644 182.125 169.699 182.1L169.732 182.147C169.798 182.101 169.867 182.054 169.939 182.004C170.652 181.766 171.59 181.846 172.894 182.534L173.827 180.765C176.215 182.026 178.736 184.523 181.161 187.532L179.603 188.787C181.569 191.228 183.488 194.039 185.225 196.812L186.92 195.751C188.924 198.951 190.665 202.062 191.945 204.455L167.759 183.486ZM27.0158 27.3253C27.2249 31.0714 27.384 35.287 27.5011 39.88M27.7734 64.9975C27.7743 69.0815 27.7597 73.287 27.7327 77.5778M27.6238 90.1132C27.5789 94.2646 27.5257 98.4607 27.4669 102.671M27.2775 115.225C27.21 119.437 27.1394 123.633 27.0683 127.784M26.8518 140.319C26.7779 144.609 26.7065 148.813 26.6406 152.895M26.4538 165.421C26.3945 169.859 26.3476 174.076 26.3179 178.015M26.2932 190.579C26.3371 198.513 26.5233 204.323 26.9285 207.125M30.7104 203.292C32.018 200.259 33.6138 196.195 35.3987 191.473M39.8195 179.545C41.0799 176.098 42.3843 172.507 43.7087 168.86C43.8634 168.434 44.0185 168.007 44.1737 167.579M48.5311 155.623C50.0305 151.533 51.5185 147.511 52.9612 143.685M57.5563 131.825C60.4013 124.744 62.8483 119.278 64.541 116.762M66.6249 117.168C67.0801 120.153 68.0973 126.418 69.6837 134.017M72.5484 146.397C75.9672 159.729 80.8111 173.916 87.1085 181.32M96.2555 186.997C106.779 189.261 114.431 178.838 117.917 172.765M125.939 170.237L137.784 173.403M149.629 176.569L161.474 179.735M68.3293 115.013L68.3293 115.013L68.182 113.941L67.2038 113.478C66.05 112.931 65.0234 113.453 64.5448 113.79C64.0368 114.148 63.604 114.65 63.247 115.128C62.5111 116.115 61.7023 117.55 60.8475 119.265L64.4272 121.049C64.6369 120.629 64.8371 120.24 65.0275 119.881C65.1259 120.489 65.2353 121.152 65.3558 121.866L69.3 121.2C68.9749 119.274 68.7316 117.723 68.5699 116.656C68.4891 116.122 68.4286 115.709 68.3885 115.431C68.3685 115.292 68.3535 115.187 68.3437 115.116L68.3327 115.038L68.33 115.019L68.3294 115.014L68.3293 115.013ZM167.759 180.989C168.02 180.772 168.287 180.589 168.559 180.437L167.892 179.465L167.562 180.699L167.759 180.989ZM120.533 166.722L118.852 166.273L118.175 167.874L118.175 167.874L118.175 167.875L118.175 167.875L118.175 167.875L118.175 167.875L118.171 167.885L118.15 167.933C118.13 167.977 118.1 168.046 118.059 168.137C117.976 168.32 117.85 168.593 117.682 168.94C117.346 169.633 116.842 170.619 116.182 171.769L119.652 173.761C120.266 172.689 120.757 171.747 121.118 171.019L125.423 172.169L126.456 168.305L120.533 166.722ZM22.6844 10.5064C22.6628 10.4876 22.6631 10.4882 22.6813 10.5191C22.7289 10.6 22.8985 10.8886 23.1155 11.5788C23.3821 12.4267 23.6411 13.6125 23.8823 15.1445L27.8336 14.5222C27.5781 12.8996 27.2824 11.4957 26.9314 10.3791C26.6136 9.36831 26.1425 8.21581 25.3154 7.49356L22.6844 10.5064ZM25.0189 27.4367C25.2266 31.1572 25.385 35.3518 25.5017 39.931L29.5004 39.829C29.383 35.2222 29.2232 30.9855 29.0127 27.2138L25.0189 27.4367ZM25.7148 52.4942C25.7542 56.4962 25.7725 60.6783 25.7734 64.998L29.7734 64.9971C29.7725 60.667 29.7541 56.4718 29.7146 52.4548L25.7148 52.4942ZM25.7328 77.5652C25.7069 81.6725 25.6697 85.8585 25.6239 90.0915L29.6237 90.1348C29.6696 85.8967 29.7068 81.7046 29.7327 77.5904L25.7328 77.5652ZM25.4671 102.644C25.4087 106.822 25.3448 111.015 25.2778 115.193L29.2773 115.258C29.3443 111.077 29.4083 106.881 29.4667 102.699L25.4671 102.644ZM25.0686 127.749C25.0252 130.281 24.9817 132.795 24.9385 135.286C24.9095 136.963 24.8806 138.63 24.8521 140.285L28.8515 140.354C28.88 138.7 28.9089 137.033 28.9379 135.356C28.9811 132.865 29.0246 130.349 29.068 127.818L25.0686 127.749ZM24.6409 152.863C24.571 157.191 24.5075 161.382 24.4539 165.394L28.4536 165.448C28.5071 161.44 28.5706 157.253 28.6403 152.927L24.6409 152.863ZM24.318 178C24.2834 182.605 24.2724 186.833 24.2932 190.59L28.2931 190.568C28.2724 186.834 28.2833 182.624 28.3179 178.03L24.318 178ZM24.584 203.239C24.6997 205.358 24.8575 207.07 25.084 208.209C25.1825 208.704 25.3466 209.397 25.7016 209.938C25.8742 210.201 26.344 210.818 27.2274 210.969C28.1993 211.135 28.8856 210.62 29.1797 210.33C29.7488 209.767 30.286 208.843 30.7703 207.91C31.2953 206.898 31.8926 205.602 32.547 204.084L28.8738 202.5C28.7758 202.728 28.6799 202.948 28.5859 203.162C28.5833 203.115 28.5807 203.068 28.5781 203.021L24.584 203.239ZM37.2696 192.18C38.6495 188.529 40.141 184.489 41.6978 180.232L37.9411 178.858C36.3863 183.11 34.9005 187.135 33.5279 190.766L37.2696 192.18ZM46.0536 168.262C47.4961 164.29 48.958 160.269 50.4089 156.311L46.6534 154.934C45.2001 158.898 43.7364 162.925 42.2939 166.897L46.0536 168.262ZM54.8326 144.39C56.4329 140.145 57.9747 136.148 59.4121 132.571L55.7005 131.08C54.2487 134.693 52.696 138.719 51.0898 142.979L54.8326 144.39ZM67.7259 134.426C68.538 138.316 69.4993 142.559 70.6111 146.894L74.4857 145.901C73.3917 141.634 72.4437 137.452 71.6415 133.609L67.7259 134.426ZM74.1679 159.22C75.5488 163.452 77.0848 167.559 78.78 171.283L82.4206 169.626C80.8035 166.073 79.3194 162.113 77.9705 157.979L74.1679 159.22ZM85.585 182.616C87.2147 184.532 89.0112 186.116 90.9931 187.159C92.6335 188.022 94.2491 188.611 95.8348 188.952L96.6762 185.042C95.4732 184.783 94.1995 184.326 92.8557 183.619C91.457 182.883 90.0432 181.683 88.632 180.024L85.585 182.616ZM106.117 187.72C109.217 186.271 111.861 184.004 114.02 181.623L111.058 178.936C109.116 181.076 106.885 182.946 104.423 184.097L106.117 187.72ZM137.268 175.335L149.112 178.502L150.145 174.637L138.3 171.471L137.268 175.335Z" stroke="url(#paint6_angular_8_12)" stroke-width="4" stroke-dasharray="12 12"/>
<path d="M171.759 197.486L170.88 197.251L164.957 195.668L165.99 191.803L171.821 193.362L171.469 192.848C171.519 192.814 171.57 192.779 171.623 192.742L171.592 192.686C171.733 192.609 171.875 192.536 172.02 192.469C173.061 191.752 174.514 190.742 176.236 189.523L177.392 191.155C179.874 189.398 182.91 187.208 186.07 184.836L184.87 183.236C187.675 181.13 190.571 178.886 193.254 176.678L194.525 178.223C197.591 175.7 200.393 173.218 202.49 171.032L201.046 169.648C202.541 168.089 203.529 166.823 204 165.909C204.323 165.28 204.774 164.688 205.405 164.259C206.058 163.815 206.794 163.624 207.532 163.646C208.889 163.686 210.118 164.434 211.085 165.207L209.837 166.77C211.667 168.232 213.832 170.986 216.019 174.226L217.677 173.108C219.454 175.741 221.234 178.674 222.857 181.49L221.124 182.489C222.942 185.645 224.575 188.678 225.793 191.002L227.564 190.074C228.251 191.385 228.807 192.473 229.192 193.234C229.385 193.614 229.535 193.913 229.637 194.118C229.688 194.22 229.727 194.299 229.753 194.352L229.783 194.413L229.791 194.429L229.793 194.434L229.794 194.435L229.794 194.435L229.794 194.435L228 195.318L229.794 194.435L230.452 195.772L229.359 196.785L225.638 200.234L224.279 198.767L216.836 205.664L218.196 207.131L210.754 214.028L209.394 212.562L201.952 219.459L203.311 220.926L199.59 224.374L197.602 226.217L171.759 197.486ZM171.759 197.486L172.514 196.977L172.514 196.977L172.515 196.976L172.516 196.975L172.522 196.972L172.542 196.958L172.62 196.905C172.689 196.858 172.791 196.789 172.923 196.699L172.893 196.655C172.942 196.609 172.991 196.566 173.04 196.526L171.802 195.043C172.001 194.908 172.268 194.725 172.597 194.5L173.531 196.185C173.588 196.154 173.644 196.125 173.699 196.1L173.732 196.147C173.798 196.101 173.867 196.054 173.939 196.004C174.652 195.766 175.59 195.846 176.894 196.534L177.827 194.765C180.215 196.026 182.736 198.523 185.161 201.532L183.603 202.787C185.569 205.228 187.488 208.039 189.225 210.812L190.92 209.751C192.924 212.951 194.665 216.062 195.945 218.455L171.759 197.486ZM31.0158 41.3253C31.2249 45.0714 31.384 49.287 31.5011 53.88M31.7734 78.9975C31.7743 83.0815 31.7597 87.287 31.7327 91.5778M31.6238 104.113C31.5789 108.265 31.5257 112.461 31.4669 116.671M31.2775 129.225C31.21 133.437 31.1394 137.633 31.0683 141.784M30.8518 154.319C30.7779 158.609 30.7065 162.813 30.6406 166.895M30.4538 179.421C30.3945 183.859 30.3476 188.076 30.3179 192.015M30.2932 204.579C30.3371 212.513 30.5233 218.323 30.9285 221.125M34.7104 217.292C36.018 214.259 37.6138 210.195 39.3987 205.473M43.8195 193.545C45.0799 190.098 46.3843 186.507 47.7087 182.86C47.8634 182.434 48.0185 182.007 48.1737 181.579M52.5311 169.623C54.0305 165.533 55.5185 161.511 56.9612 157.685M61.5563 145.825C64.4013 138.744 66.8483 133.278 68.541 130.762M70.6249 131.168C71.0801 134.153 72.0973 140.418 73.6837 148.017M76.5484 160.397C79.9672 173.729 84.8111 187.916 91.1085 195.32M100.256 200.997C110.779 203.261 118.431 192.838 121.917 186.765M129.939 184.237L141.784 187.403M153.629 190.569L165.474 193.735M72.3293 129.013L72.3293 129.013L72.182 127.941L71.2038 127.478C70.05 126.931 69.0234 127.453 68.5448 127.79C68.0368 128.148 67.604 128.65 67.247 129.128C66.5111 130.115 65.7023 131.55 64.8475 133.265L68.4272 135.049C68.6369 134.629 68.8371 134.24 69.0275 133.881C69.1259 134.489 69.2353 135.152 69.3558 135.866L73.3 135.2C72.9749 133.274 72.7316 131.723 72.5699 130.656C72.4891 130.122 72.4286 129.709 72.3885 129.431C72.3685 129.292 72.3535 129.187 72.3437 129.116L72.3327 129.038L72.33 129.019L72.3294 129.014L72.3293 129.013ZM171.759 194.989C172.02 194.772 172.287 194.589 172.559 194.437L171.892 193.465L171.562 194.699L171.759 194.989ZM124.533 180.722L122.852 180.273L122.175 181.874L122.175 181.874L122.175 181.875L122.175 181.875L122.175 181.875L122.175 181.875L122.171 181.885L122.15 181.933C122.13 181.977 122.1 182.046 122.059 182.137C121.976 182.32 121.85 182.593 121.682 182.94C121.346 183.633 120.842 184.619 120.182 185.769L123.652 187.761C124.266 186.689 124.757 185.747 125.118 185.019L129.423 186.169L130.456 182.305L124.533 180.722ZM26.6844 24.5064C26.6628 24.4876 26.6631 24.4882 26.6813 24.5191C26.7289 24.6 26.8985 24.8886 27.1155 25.5788C27.3821 26.4267 27.6411 27.6125 27.8823 29.1445L31.8336 28.5222C31.5781 26.8996 31.2824 25.4957 30.9314 24.3791C30.6136 23.3683 30.1425 22.2158 29.3154 21.4936L26.6844 24.5064ZM29.0189 41.4367C29.2266 45.1572 29.385 49.3518 29.5017 53.931L33.5004 53.829C33.383 49.2222 33.2232 44.9855 33.0127 41.2138L29.0189 41.4367ZM29.7148 66.4942C29.7542 70.4962 29.7725 74.6783 29.7734 78.998L33.7734 78.9971C33.7725 74.667 33.7541 70.4718 33.7146 66.4548L29.7148 66.4942ZM29.7328 91.5652C29.7069 95.6725 29.6697 99.8585 29.6239 104.092L33.6237 104.135C33.6696 99.8967 33.7068 95.7046 33.7327 91.5904L29.7328 91.5652ZM29.4671 116.644C29.4087 120.822 29.3448 125.015 29.2778 129.193L33.2773 129.258C33.3443 125.077 33.4083 120.881 33.4667 116.699L29.4671 116.644ZM29.0686 141.749C29.0252 144.281 28.9817 146.795 28.9385 149.286C28.9095 150.963 28.8806 152.63 28.8521 154.285L32.8515 154.354C32.88 152.7 32.9089 151.033 32.9379 149.356C32.9811 146.865 33.0246 144.349 33.068 141.818L29.0686 141.749ZM28.6409 166.863C28.571 171.191 28.5075 175.382 28.4539 179.394L32.4536 179.448C32.5071 175.44 32.5706 171.253 32.6403 166.927L28.6409 166.863ZM28.318 192C28.2834 196.605 28.2724 200.833 28.2932 204.59L32.2931 204.568C32.2724 200.834 32.2833 196.624 32.3179 192.03L28.318 192ZM28.584 217.239C28.6997 219.358 28.8575 221.07 29.084 222.209C29.1825 222.704 29.3466 223.397 29.7016 223.938C29.8742 224.201 30.344 224.818 31.2274 224.969C32.1993 225.135 32.8856 224.62 33.1797 224.33C33.7488 223.767 34.286 222.843 34.7703 221.91C35.2953 220.898 35.8926 219.602 36.547 218.084L32.8738 216.5C32.7758 216.728 32.6799 216.948 32.5859 217.162C32.5833 217.115 32.5807 217.068 32.5781 217.021L28.584 217.239ZM41.2696 206.18C42.6495 202.529 44.141 198.489 45.6978 194.232L41.9411 192.858C40.3863 197.11 38.9005 201.135 37.5279 204.766L41.2696 206.18ZM50.0536 182.262C51.4961 178.29 52.958 174.269 54.4089 170.311L50.6534 168.934C49.2001 172.898 47.7364 176.925 46.2939 180.897L50.0536 182.262ZM58.8326 158.39C60.4329 154.145 61.9747 150.148 63.4121 146.571L59.7005 145.08C58.2487 148.693 56.696 152.719 55.0898 156.979L58.8326 158.39ZM71.7259 148.426C72.538 152.316 73.4993 156.559 74.6111 160.894L78.4857 159.901C77.3917 155.634 76.4437 151.452 75.6415 147.609L71.7259 148.426ZM78.1679 173.22C79.5488 177.452 81.0848 181.559 82.78 185.283L86.4206 183.626C84.8035 180.073 83.3194 176.113 81.9705 171.979L78.1679 173.22ZM89.585 196.616C91.2147 198.532 93.0112 200.116 94.9931 201.159C96.6335 202.022 98.2491 202.611 99.8348 202.952L100.676 199.042C99.4732 198.783 98.1995 198.326 96.8557 197.619C95.457 196.883 94.0432 195.683 92.632 194.024L89.585 196.616ZM110.117 201.72C113.217 200.271 115.861 198.004 118.02 195.623L115.058 192.936C113.116 195.076 110.885 196.946 108.423 198.097L110.117 201.72ZM141.268 189.335L153.112 192.502L154.145 188.637L142.3 185.471L141.268 189.335Z" stroke="url(#paint7_linear_8_12)" stroke-width="4" stroke-dasharray="12 12"/>
</g>
<defs>
<filter id="filter0_d_8_12" x="0.96817" y="0.987122" width="253.937" height="249.539" filterUnits="userSpaceOnUse" color-interpolation-filters="sRGB">
<feFlood flood-opacity="0" result="BackgroundImageFix"/>
<feColorMatrix in="SourceAlpha" type="matrix" values="0 0 0 0 0 0 0 0 0 0 0 0 0 0 0 0 0 0 127 0" result="hardAlpha"/>
<feOffset dx="5" dy="5"/>
<feGaussianBlur stdDeviation="5"/>
<feComposite in2="hardAlpha" operator="out"/>
<feColorMatrix type="matrix" values="0 0 0 0 0.0716813 0 0 0 0 0.0178125 0 0 0 0 0.225 0 0 0 0.25 0"/>
<feBlend mode="normal" in2="BackgroundImageFix" result="effect1_dropShadow_8_12"/>
<feBlend mode="normal" in="SourceGraphic" in2="effect1_dropShadow_8_12" result="shape"/>
</filter>
<linearGradient id="paint0_linear_8_12" x1="117" y1="15" x2="117" y2="215" gradientUnits="userSpaceOnUse">
<stop offset="0.25" stop-color="#C22626"/>
<stop offset="1" stop-color="#1A8ECF"/>
</linearGradient>
<linearGradient id="paint1_linear_8_12" x1="121" y1="29" x2="121" y2="229" gradientUnits="userSpaceOnUse">
<stop offset="0.25" stop-color="#C22626"/>
<stop offset="1" stop-color="#1A8ECF"/>
</linearGradient>
<linearGradient id="paint2_linear_8_12" x1="131" y1="9" x2="131" y2="209" gradientUnits="userSpaceOnUse">
<stop offset="0.25" stop-color="#C22626"/>
<stop offset="1" stop-color="#1A8ECF"/>
</linearGradient>
<linearGradient id="paint3_linear_8_12" x1="135" y1="23" x2="135" y2="223" gradientUnits="userSpaceOnUse">
<stop offset="0.25" stop-color="#C22626"/>
<stop offset="1" stop-color="#1A8ECF"/>
</linearGradient>
<linearGradient id="paint4_linear_8_12" x1="109" y1="15" x2="109" y2="215" gradientUnits="userSpaceOnUse">
<stop offset="0.205" stop-color="#C22626"/>
<stop offset="0.25" stop-color="#C22626"/>
<stop offset="1" stop-color="#1A8ECF"/>
</linearGradient>
<linearGradient id="paint5_linear_8_12" x1="113" y1="29" x2="113" y2="229" gradientUnits="userSpaceOnUse">
<stop offset="0.25" stop-color="#C22626"/>
<stop offset="1" stop-color="#1A8ECF"/>
</linearGradient>
<radialGradient id="paint6_angular_8_12" cx="0" cy="0" r="1" gradientUnits="userSpaceOnUse" gradientTransform="translate(124 109) rotate(90) scale(100)">
<stop offset="0.25" stop-color="#C22626"/>
<stop offset="1" stop-color="#1A8ECF"/>
</radialGradient>
<linearGradient id="paint7_linear_8_12" x1="128" y1="23" x2="128" y2="223" gradientUnits="userSpaceOnUse">
<stop offset="0.25" stop-color="#C22626"/>
<stop offset="1" stop-color="#1A8ECF"/>
</linearGradient>
</defs>
</svg>
